<?xml version="1.0" encoding="utf-8"?>
<!-- Generator: Adobe Illustrator 19.0.0, SVG Export Plug-In . SVG Version: 6.00 Build 0)  -->
<svg version="1.1" xmlns="http://www.w3.org/2000/svg" xmlns:xlink="http://www.w3.org/1999/xlink" x="0px" y="0px"
	 viewBox="0 0 283.3 283.3" style="enable-background:new 0 0 283.3 283.3;" xml:space="preserve">
<style type="text/css">
	.st0{fill-rule:evenodd;clip-rule:evenodd;}
	.st1{fill-rule:evenodd;clip-rule:evenodd;fill:#FFFFFF;}
	.st2{fill:none;}
	.st3{fill:#FFFFFF;}
	.st4{fill:none;stroke:#FFFFFF;stroke-width:0.9;stroke-linecap:round;stroke-linejoin:round;stroke-miterlimit:10;}
	.st5{fill:none;stroke:#FFFFFF;stroke-width:0.48;stroke-linecap:round;stroke-linejoin:round;stroke-miterlimit:10;}
	.st6{fill:#0A0B08;}
</style>
<g id="Layer_2">
	<rect x="0" y="0" class="st0" width="283.3" height="283.3"/>
</g>
<g id="Layer_1">
	<g>
		<g>
			<g>
				<polygon class="st1" points="11.6,143.9 11.7,144.8 12.1,145.6 12.7,146.2 13.5,146.6 14.4,146.8 15.2,146.6 16,146.2 
					16.7,145.6 17.1,144.8 17.2,143.9 17.1,143 16.7,142.3 16,141.7 15.2,141.2 14.4,141.1 13.5,141.2 12.7,141.7 12.1,142.3 
					11.7,143 11.6,143.9 12.7,143.9 12.7,144.5 13,145 13.4,145.3 13.9,145.6 14.4,145.7 14.9,145.6 15.4,145.3 15.8,145 16,144.5 
					16.1,143.9 16,143.4 15.8,142.9 15.4,142.6 14.9,142.3 14.4,142.2 13.9,142.3 13.4,142.6 13,142.9 12.7,143.4 12.7,143.9 				
					"/>
				<polygon class="st2" points="11.6,143.9 11.7,144.8 12.1,145.6 12.7,146.2 13.5,146.6 14.4,146.8 15.2,146.6 16,146.2 
					16.7,145.6 17.1,144.8 17.2,143.9 17.1,143 16.7,142.3 16,141.7 15.2,141.2 14.4,141.1 13.5,141.2 12.7,141.7 12.1,142.3 
					11.7,143 11.6,143.9 12.7,143.9 12.7,144.5 13,145 13.4,145.3 13.9,145.6 14.4,145.7 14.9,145.6 15.4,145.3 15.8,145 16,144.5 
					16.1,143.9 16,143.4 15.8,142.9 15.4,142.6 14.9,142.3 14.4,142.2 13.9,142.3 13.4,142.6 13,142.9 12.7,143.4 12.7,143.9 				
					"/>
				<polygon class="st1" points="11.6,136.7 11.7,137.6 12.1,138.4 12.7,139 13.5,139.4 14.4,139.6 15.2,139.4 16,139 16.7,138.4 
					17.1,137.6 17.2,136.7 17.1,135.9 16.7,135.1 16,134.5 15.2,134 14.4,133.9 13.5,134 12.7,134.5 12.1,135.1 11.7,135.9 
					11.6,136.7 12.7,136.7 12.7,137.3 13,137.8 13.4,138.1 13.9,138.4 14.4,138.5 14.9,138.4 15.4,138.1 15.8,137.8 16,137.3 
					16.1,136.7 16,136.2 15.8,135.7 15.4,135.4 14.9,135.1 14.4,135 13.9,135.1 13.4,135.4 13,135.7 12.7,136.2 12.7,136.7 				"/>
				<polygon class="st2" points="11.6,136.7 11.7,137.6 12.1,138.4 12.7,139 13.5,139.4 14.4,139.6 15.2,139.4 16,139 16.7,138.4 
					17.1,137.6 17.2,136.7 17.1,135.9 16.7,135.1 16,134.5 15.2,134 14.4,133.9 13.5,134 12.7,134.5 12.1,135.1 11.7,135.9 
					11.6,136.7 12.7,136.7 12.7,137.3 13,137.8 13.4,138.1 13.9,138.4 14.4,138.5 14.9,138.4 15.4,138.1 15.8,137.8 16,137.3 
					16.1,136.7 16,136.2 15.8,135.7 15.4,135.4 14.9,135.1 14.4,135 13.9,135.1 13.4,135.4 13,135.7 12.7,136.2 12.7,136.7 				"/>
				<polygon class="st1" points="11.6,129.5 11.7,130.4 12.1,131.2 12.7,131.8 13.5,132.2 14.4,132.4 15.2,132.2 16,131.8 
					16.7,131.2 17.1,130.4 17.2,129.5 17.1,128.7 16.7,127.9 16,127.3 15.2,126.8 14.4,126.7 13.5,126.8 12.7,127.3 12.1,127.9 
					11.7,128.7 11.6,129.5 12.7,129.5 12.7,130.1 13,130.6 13.4,130.9 13.9,131.2 14.4,131.3 14.9,131.2 15.4,130.9 15.8,130.6 
					16,130.1 16.1,129.5 16,129 15.8,128.5 15.4,128.2 14.9,127.9 14.4,127.8 13.9,127.9 13.4,128.2 13,128.5 12.7,129 12.7,129.5 
									"/>
				<polygon class="st2" points="11.6,129.5 11.7,130.4 12.1,131.2 12.7,131.8 13.5,132.2 14.4,132.4 15.2,132.2 16,131.8 
					16.7,131.2 17.1,130.4 17.2,129.5 17.1,128.7 16.7,127.9 16,127.3 15.2,126.8 14.4,126.7 13.5,126.8 12.7,127.3 12.1,127.9 
					11.7,128.7 11.6,129.5 12.7,129.5 12.7,130.1 13,130.6 13.4,130.9 13.9,131.2 14.4,131.3 14.9,131.2 15.4,130.9 15.8,130.6 
					16,130.1 16.1,129.5 16,129 15.8,128.5 15.4,128.2 14.9,127.9 14.4,127.8 13.9,127.9 13.4,128.2 13,128.5 12.7,129 12.7,129.5 
									"/>
				<polygon class="st1" points="11.6,151.1 11.7,152 12.1,152.8 12.7,153.4 13.5,153.8 14.4,154 15.2,153.8 16,153.4 16.7,152.8 
					17.1,152 17.2,151.1 17.1,150.2 16.7,149.5 16,148.9 15.2,148.4 14.4,148.3 13.5,148.4 12.7,148.9 12.1,149.5 11.7,150.2 
					11.6,151.1 12.7,151.1 12.7,151.7 13,152.2 13.4,152.5 13.9,152.8 14.4,152.9 14.9,152.8 15.4,152.5 15.8,152.2 16,151.7 
					16.1,151.1 16,150.6 15.8,150.1 15.4,149.7 14.9,149.5 14.4,149.4 13.9,149.5 13.4,149.7 13,150.1 12.7,150.6 12.7,151.1 				
					"/>
				<polygon class="st2" points="11.6,151.1 11.7,152 12.1,152.8 12.7,153.4 13.5,153.8 14.4,154 15.2,153.8 16,153.4 16.7,152.8 
					17.1,152 17.2,151.1 17.1,150.2 16.7,149.5 16,148.9 15.2,148.4 14.4,148.3 13.5,148.4 12.7,148.9 12.1,149.5 11.7,150.2 
					11.6,151.1 12.7,151.1 12.7,151.7 13,152.2 13.4,152.5 13.9,152.8 14.4,152.9 14.9,152.8 15.4,152.5 15.8,152.2 16,151.7 
					16.1,151.1 16,150.6 15.8,150.1 15.4,149.7 14.9,149.5 14.4,149.4 13.9,149.5 13.4,149.7 13,150.1 12.7,150.6 12.7,151.1 				
					"/>
				<polygon class="st1" points="11.6,158.3 11.7,159.2 12.1,160 12.7,160.6 13.5,161 14.4,161.2 15.2,161 16,160.6 16.7,160 
					17.1,159.2 17.2,158.3 17.1,157.4 16.7,156.7 16,156.1 15.2,155.6 14.4,155.5 13.5,155.6 12.7,156.1 12.1,156.7 11.7,157.4 
					11.6,158.3 12.7,158.3 12.7,158.9 13,159.4 13.4,159.7 13.9,160 14.4,160.1 14.9,160 15.4,159.7 15.8,159.4 16,158.9 
					16.1,158.3 16,157.8 15.8,157.3 15.4,156.9 14.9,156.7 14.4,156.6 13.9,156.7 13.4,156.9 13,157.3 12.7,157.8 12.7,158.3 				
					"/>
				<polygon class="st2" points="11.6,158.3 11.7,159.2 12.1,160 12.7,160.6 13.5,161 14.4,161.2 15.2,161 16,160.6 16.7,160 
					17.1,159.2 17.2,158.3 17.1,157.4 16.7,156.7 16,156.1 15.2,155.6 14.4,155.5 13.5,155.6 12.7,156.1 12.1,156.7 11.7,157.4 
					11.6,158.3 12.7,158.3 12.7,158.9 13,159.4 13.4,159.7 13.9,160 14.4,160.1 14.9,160 15.4,159.7 15.8,159.4 16,158.9 
					16.1,158.3 16,157.8 15.8,157.3 15.4,156.9 14.9,156.7 14.4,156.6 13.9,156.7 13.4,156.9 13,157.3 12.7,157.8 12.7,158.3 				
					"/>
				<polygon class="st1" points="11.6,165.5 11.7,166.4 12.1,167.2 12.7,167.8 13.5,168.2 14.4,168.4 15.2,168.2 16,167.8 
					16.7,167.2 17.1,166.4 17.2,165.5 17.1,164.6 16.7,163.9 16,163.3 15.2,162.8 14.4,162.7 13.5,162.8 12.7,163.3 12.1,163.9 
					11.7,164.6 11.6,165.5 12.7,165.5 12.7,166.1 13,166.6 13.4,166.9 13.9,167.2 14.4,167.3 14.9,167.2 15.4,166.9 15.8,166.6 
					16,166.1 16.1,165.5 16,165 15.8,164.5 15.4,164.1 14.9,163.9 14.4,163.8 13.9,163.9 13.4,164.1 13,164.5 12.7,165 12.7,165.5 
									"/>
				<polygon class="st2" points="11.6,165.5 11.7,166.4 12.1,167.2 12.7,167.8 13.5,168.2 14.4,168.4 15.2,168.2 16,167.8 
					16.7,167.2 17.1,166.4 17.2,165.5 17.1,164.6 16.7,163.9 16,163.3 15.2,162.8 14.4,162.7 13.5,162.8 12.7,163.3 12.1,163.9 
					11.7,164.6 11.6,165.5 12.7,165.5 12.7,166.1 13,166.6 13.4,166.9 13.9,167.2 14.4,167.3 14.9,167.2 15.4,166.9 15.8,166.6 
					16,166.1 16.1,165.5 16,165 15.8,164.5 15.4,164.1 14.9,163.9 14.4,163.8 13.9,163.9 13.4,164.1 13,164.5 12.7,165 12.7,165.5 
									"/>
				<polygon class="st1" points="11.6,115.1 11.7,116 12.1,116.8 12.7,117.4 13.5,117.8 14.4,118 15.2,117.8 16,117.4 16.7,116.8 
					17.1,116 17.2,115.1 17.1,114.3 16.7,113.5 16,112.9 15.2,112.5 14.4,112.3 13.5,112.5 12.7,112.9 12.1,113.5 11.7,114.3 
					11.6,115.1 12.7,115.1 12.7,115.7 13,116.2 13.4,116.6 13.9,116.8 14.4,116.9 14.9,116.8 15.4,116.6 15.8,116.2 16,115.7 
					16.1,115.1 16,114.6 15.8,114.1 15.4,113.8 14.9,113.5 14.4,113.4 13.9,113.5 13.4,113.8 13,114.1 12.7,114.6 12.7,115.1 				
					"/>
				<polygon class="st2" points="11.6,115.1 11.7,116 12.1,116.8 12.7,117.4 13.5,117.8 14.4,118 15.2,117.8 16,117.4 16.7,116.8 
					17.1,116 17.2,115.1 17.1,114.3 16.7,113.5 16,112.9 15.2,112.5 14.4,112.3 13.5,112.5 12.7,112.9 12.1,113.5 11.7,114.3 
					11.6,115.1 12.7,115.1 12.7,115.7 13,116.2 13.4,116.6 13.9,116.8 14.4,116.9 14.9,116.8 15.4,116.6 15.8,116.2 16,115.7 
					16.1,115.1 16,114.6 15.8,114.1 15.4,113.8 14.9,113.5 14.4,113.4 13.9,113.5 13.4,113.8 13,114.1 12.7,114.6 12.7,115.1 				
					"/>
				<polygon class="st1" points="11.6,122.3 11.7,123.2 12.1,124 12.7,124.6 13.5,125 14.4,125.2 15.2,125 16,124.6 16.7,124 
					17.1,123.2 17.2,122.3 17.1,121.5 16.7,120.7 16,120.1 15.2,119.6 14.4,119.5 13.5,119.6 12.7,120.1 12.1,120.7 11.7,121.5 
					11.6,122.3 12.7,122.3 12.7,122.9 13,123.4 13.4,123.8 13.9,124 14.4,124.1 14.9,124 15.4,123.8 15.8,123.4 16,122.9 
					16.1,122.3 16,121.8 15.8,121.3 15.4,121 14.9,120.7 14.4,120.6 13.9,120.7 13.4,121 13,121.3 12.7,121.8 12.7,122.3 				"/>
				<polygon class="st2" points="11.6,122.3 11.7,123.2 12.1,124 12.7,124.6 13.5,125 14.4,125.2 15.2,125 16,124.6 16.7,124 
					17.1,123.2 17.2,122.3 17.1,121.5 16.7,120.7 16,120.1 15.2,119.6 14.4,119.5 13.5,119.6 12.7,120.1 12.1,120.7 11.7,121.5 
					11.6,122.3 12.7,122.3 12.7,122.9 13,123.4 13.4,123.8 13.9,124 14.4,124.1 14.9,124 15.4,123.8 15.8,123.4 16,122.9 
					16.1,122.3 16,121.8 15.8,121.3 15.4,121 14.9,120.7 14.4,120.6 13.9,120.7 13.4,121 13,121.3 12.7,121.8 12.7,122.3 				"/>
				<polygon class="st1" points="40.4,273.5 40.5,274.4 40.9,275.2 41.5,275.8 42.3,276.2 43.2,276.3 44,276.2 44.8,275.8 
					45.5,275.2 45.8,274.4 46,273.5 45.8,272.6 45.5,271.8 44.8,271.2 44,270.8 43.2,270.7 42.3,270.8 41.5,271.2 40.9,271.8 
					40.5,272.6 40.4,273.5 41.5,273.5 41.5,274 41.8,274.5 42.2,274.9 42.7,275.2 43.2,275.2 43.7,275.2 44.2,274.9 44.6,274.5 
					44.8,274 44.9,273.5 44.8,272.9 44.6,272.5 44.2,272.1 43.7,271.8 43.2,271.7 42.7,271.8 42.2,272.1 41.8,272.5 41.5,272.9 
					41.5,273.5 				"/>
				<polygon class="st2" points="40.4,273.5 40.5,274.4 40.9,275.2 41.5,275.8 42.3,276.2 43.2,276.3 44,276.2 44.8,275.8 
					45.5,275.2 45.8,274.4 46,273.5 45.8,272.6 45.5,271.8 44.8,271.2 44,270.8 43.2,270.7 42.3,270.8 41.5,271.2 40.9,271.8 
					40.5,272.6 40.4,273.5 41.5,273.5 41.5,274 41.8,274.5 42.2,274.9 42.7,275.2 43.2,275.2 43.7,275.2 44.2,274.9 44.6,274.5 
					44.8,274 44.9,273.5 44.8,272.9 44.6,272.5 44.2,272.1 43.7,271.8 43.2,271.7 42.7,271.8 42.2,272.1 41.8,272.5 41.5,272.9 
					41.5,273.5 				"/>
				<polygon class="st1" points="47.6,273.5 47.7,274.4 48.1,275.2 48.7,275.8 49.5,276.2 50.4,276.3 51.2,276.2 52,275.8 
					52.7,275.2 53,274.4 53.2,273.5 53,272.6 52.7,271.8 52,271.2 51.2,270.8 50.4,270.7 49.5,270.8 48.7,271.2 48.1,271.8 
					47.7,272.6 47.6,273.5 48.7,273.5 48.7,274 49,274.5 49.4,274.9 49.9,275.2 50.4,275.2 50.9,275.2 51.4,274.9 51.8,274.5 
					52,274 52.1,273.5 52,272.9 51.8,272.5 51.4,272.1 50.9,271.8 50.4,271.7 49.9,271.8 49.4,272.1 49,272.5 48.7,272.9 
					48.7,273.5 				"/>
				<polygon class="st2" points="47.6,273.5 47.7,274.4 48.1,275.2 48.7,275.8 49.5,276.2 50.4,276.3 51.2,276.2 52,275.8 
					52.7,275.2 53,274.4 53.2,273.5 53,272.6 52.7,271.8 52,271.2 51.2,270.8 50.4,270.7 49.5,270.8 48.7,271.2 48.1,271.8 
					47.7,272.6 47.6,273.5 48.7,273.5 48.7,274 49,274.5 49.4,274.9 49.9,275.2 50.4,275.2 50.9,275.2 51.4,274.9 51.8,274.5 
					52,274 52.1,273.5 52,272.9 51.8,272.5 51.4,272.1 50.9,271.8 50.4,271.7 49.9,271.8 49.4,272.1 49,272.5 48.7,272.9 
					48.7,273.5 				"/>
				<polygon class="st1" points="11.6,251.9 11.7,252.8 12.1,253.6 12.7,254.2 13.5,254.6 14.4,254.7 15.2,254.6 16,254.2 
					16.7,253.6 17.1,252.8 17.2,251.9 17.1,251 16.7,250.3 16,249.6 15.2,249.2 14.4,249.1 13.5,249.2 12.7,249.6 12.1,250.3 
					11.7,251 11.6,251.9 12.7,251.9 12.7,252.4 13,252.9 13.4,253.3 13.9,253.6 14.4,253.6 14.9,253.6 15.4,253.3 15.8,252.9 
					16,252.4 16.1,251.9 16,251.3 15.8,250.9 15.4,250.5 14.9,250.3 14.4,250.1 13.9,250.3 13.4,250.5 13,250.9 12.7,251.3 
					12.7,251.9 				"/>
				<polygon class="st2" points="11.6,251.9 11.7,252.8 12.1,253.6 12.7,254.2 13.5,254.6 14.4,254.7 15.2,254.6 16,254.2 
					16.7,253.6 17.1,252.8 17.2,251.9 17.1,251 16.7,250.3 16,249.6 15.2,249.2 14.4,249.1 13.5,249.2 12.7,249.6 12.1,250.3 
					11.7,251 11.6,251.9 12.7,251.9 12.7,252.4 13,252.9 13.4,253.3 13.9,253.6 14.4,253.6 14.9,253.6 15.4,253.3 15.8,252.9 
					16,252.4 16.1,251.9 16,251.3 15.8,250.9 15.4,250.5 14.9,250.3 14.4,250.1 13.9,250.3 13.4,250.5 13,250.9 12.7,251.3 
					12.7,251.9 				"/>
				<polygon class="st1" points="11.6,244.7 11.7,245.6 12.1,246.4 12.7,247 13.5,247.4 14.4,247.5 15.2,247.4 16,247 16.7,246.4 
					17.1,245.6 17.2,244.7 17.1,243.8 16.7,243.1 16,242.4 15.2,242 14.4,241.9 13.5,242 12.7,242.4 12.1,243.1 11.7,243.8 
					11.6,244.7 12.7,244.7 12.7,245.2 13,245.7 13.4,246.1 13.9,246.4 14.4,246.4 14.9,246.4 15.4,246.1 15.8,245.7 16,245.2 
					16.1,244.7 16,244.1 15.8,243.7 15.4,243.3 14.9,243.1 14.4,242.9 13.9,243.1 13.4,243.3 13,243.7 12.7,244.1 12.7,244.7 				
					"/>
				<polygon class="st2" points="11.6,244.7 11.7,245.6 12.1,246.4 12.7,247 13.5,247.4 14.4,247.5 15.2,247.4 16,247 16.7,246.4 
					17.1,245.6 17.2,244.7 17.1,243.8 16.7,243.1 16,242.4 15.2,242 14.4,241.9 13.5,242 12.7,242.4 12.1,243.1 11.7,243.8 
					11.6,244.7 12.7,244.7 12.7,245.2 13,245.7 13.4,246.1 13.9,246.4 14.4,246.4 14.9,246.4 15.4,246.1 15.8,245.7 16,245.2 
					16.1,244.7 16,244.1 15.8,243.7 15.4,243.3 14.9,243.1 14.4,242.9 13.9,243.1 13.4,243.3 13,243.7 12.7,244.1 12.7,244.7 				
					"/>
				<polygon class="st1" points="11.6,237.5 11.7,238.4 12.1,239.2 12.7,239.8 13.5,240.2 14.4,240.3 15.2,240.2 16,239.8 
					16.7,239.2 17.1,238.4 17.2,237.5 17.1,236.6 16.7,235.9 16,235.2 15.2,234.8 14.4,234.7 13.5,234.8 12.7,235.2 12.1,235.9 
					11.7,236.6 11.6,237.5 12.7,237.5 12.7,238 13,238.5 13.4,238.9 13.9,239.2 14.4,239.2 14.9,239.2 15.4,238.9 15.8,238.5 
					16,238 16.1,237.5 16,236.9 15.8,236.5 15.4,236.1 14.9,235.9 14.4,235.7 13.9,235.9 13.4,236.1 13,236.5 12.7,236.9 
					12.7,237.5 				"/>
				<polygon class="st2" points="11.6,237.5 11.7,238.4 12.1,239.2 12.7,239.8 13.5,240.2 14.4,240.3 15.2,240.2 16,239.8 
					16.7,239.2 17.1,238.4 17.2,237.5 17.1,236.6 16.7,235.9 16,235.2 15.2,234.8 14.4,234.7 13.5,234.8 12.7,235.2 12.1,235.9 
					11.7,236.6 11.6,237.5 12.7,237.5 12.7,238 13,238.5 13.4,238.9 13.9,239.2 14.4,239.2 14.9,239.2 15.4,238.9 15.8,238.5 
					16,238 16.1,237.5 16,236.9 15.8,236.5 15.4,236.1 14.9,235.9 14.4,235.7 13.9,235.9 13.4,236.1 13,236.5 12.7,236.9 
					12.7,237.5 				"/>
				<rect x="32.4" y="269.9" class="st3" width="7.2" height="7.2"/>
				<rect x="32.4" y="269.9" class="st2" width="7.2" height="7.2"/>
				<polygon class="st1" points="25.4,273.5 25.6,274.5 26.1,275.5 26.8,276.2 27.8,276.7 28.8,276.8 29.8,276.7 30.8,276.2 
					31.5,275.5 32,274.5 32.2,273.5 32,272.5 31.5,271.5 30.8,270.8 29.8,270.3 28.8,270.1 27.8,270.3 26.8,270.8 26.1,271.5 
					25.6,272.5 25.4,273.5 27.6,273.5 27.7,273.8 27.8,274.2 28.1,274.4 28.4,274.6 28.8,274.7 29.2,274.6 29.5,274.4 29.8,274.2 
					29.9,273.8 30,273.5 29.9,273.1 29.8,272.8 29.5,272.5 29.2,272.3 28.8,272.3 28.4,272.3 28.1,272.5 27.8,272.8 27.7,273.1 
					27.6,273.5 				"/>
				<polygon class="st2" points="25.4,273.5 25.6,274.5 26.1,275.5 26.8,276.2 27.8,276.7 28.8,276.8 29.8,276.7 30.8,276.2 
					31.5,275.5 32,274.5 32.2,273.5 32,272.5 31.5,271.5 30.8,270.8 29.8,270.3 28.8,270.1 27.8,270.3 26.8,270.8 26.1,271.5 
					25.6,272.5 25.4,273.5 27.6,273.5 27.7,273.8 27.8,274.2 28.1,274.4 28.4,274.6 28.8,274.7 29.2,274.6 29.5,274.4 29.8,274.2 
					29.9,273.8 30,273.5 29.9,273.1 29.8,272.8 29.5,272.5 29.2,272.3 28.8,272.3 28.4,272.3 28.1,272.5 27.8,272.8 27.7,273.1 
					27.6,273.5 				"/>
				<polygon class="st1" points="61.4,273.5 61.6,274.5 62,275.5 62.8,276.2 63.7,276.7 64.8,276.8 65.8,276.7 66.7,276.2 
					67.5,275.5 68,274.5 68.1,273.5 68,272.5 67.5,271.5 66.7,270.8 65.8,270.3 64.8,270.1 63.7,270.3 62.8,270.8 62,271.5 
					61.6,272.5 61.4,273.5 63.6,273.5 63.7,273.8 63.8,274.2 64.1,274.4 64.4,274.6 64.8,274.7 65.2,274.6 65.5,274.4 65.8,274.2 
					65.9,273.8 65.9,273.5 65.9,273.1 65.8,272.8 65.5,272.5 65.2,272.3 64.8,272.3 64.4,272.3 64.1,272.5 63.8,272.8 63.7,273.1 
					63.6,273.5 				"/>
				<polygon class="st2" points="61.4,273.5 61.6,274.5 62,275.5 62.8,276.2 63.7,276.7 64.8,276.8 65.8,276.7 66.7,276.2 
					67.5,275.5 68,274.5 68.1,273.5 68,272.5 67.5,271.5 66.7,270.8 65.8,270.3 64.8,270.1 63.7,270.3 62.8,270.8 62,271.5 
					61.6,272.5 61.4,273.5 63.6,273.5 63.7,273.8 63.8,274.2 64.1,274.4 64.4,274.6 64.8,274.7 65.2,274.6 65.5,274.4 65.8,274.2 
					65.9,273.8 65.9,273.5 65.9,273.1 65.8,272.8 65.5,272.5 65.2,272.3 64.8,272.3 64.4,272.3 64.1,272.5 63.8,272.8 63.7,273.1 
					63.6,273.5 				"/>
				<polygon class="st1" points="32.6,251.9 32.8,252.9 33.2,253.9 34,254.6 34.9,255.1 36,255.2 37,255.1 38,254.6 38.7,253.9 
					39.2,252.9 39.4,251.9 39.2,250.9 38.7,249.9 38,249.2 37,248.7 36,248.5 34.9,248.7 34,249.2 33.2,249.9 32.8,250.9 
					32.6,251.9 34.8,251.9 34.9,252.2 35,252.6 35.3,252.8 35.6,253 36,253.1 36.4,253 36.7,252.8 37,252.6 37.1,252.2 37.2,251.9 
					37.1,251.5 37,251.2 36.7,250.9 36.4,250.7 36,250.7 35.6,250.7 35.3,250.9 35,251.2 34.9,251.5 34.8,251.9 				"/>
				<polygon class="st1" points="32.6,244.7 32.8,245.8 33.2,246.7 34,247.4 34.9,247.9 36,248 37,247.9 38,247.4 38.7,246.7 
					39.2,245.8 39.4,244.7 39.2,243.7 38.7,242.7 38,242 37,241.5 36,241.3 34.9,241.5 34,242 33.2,242.7 32.8,243.7 32.6,244.7 
					34.8,244.7 34.9,245 35,245.4 35.3,245.6 35.6,245.8 36,245.9 36.4,245.8 36.7,245.6 37,245.4 37.1,245 37.2,244.7 37.1,244.3 
					37,244 36.7,243.7 36.4,243.5 36,243.5 35.6,243.5 35.3,243.7 35,244 34.9,244.3 34.8,244.7 				"/>
				<polygon class="st2" points="32.6,251.9 32.8,252.9 33.2,253.9 34,254.6 34.9,255.1 36,255.2 37,255.1 38,254.6 38.7,253.9 
					39.2,252.9 39.4,251.9 39.2,250.9 38.7,249.9 38,249.2 37,248.7 36,248.5 34.9,248.7 34,249.2 33.2,249.9 32.8,250.9 
					32.6,251.9 34.8,251.9 34.9,252.2 35,252.6 35.3,252.8 35.6,253 36,253.1 36.4,253 36.7,252.8 37,252.6 37.1,252.2 37.2,251.9 
					37.1,251.5 37,251.2 36.7,250.9 36.4,250.7 36,250.7 35.6,250.7 35.3,250.9 35,251.2 34.9,251.5 34.8,251.9 				"/>
				<polygon class="st2" points="32.6,244.7 32.8,245.8 33.2,246.7 34,247.4 34.9,247.9 36,248 37,247.9 38,247.4 38.7,246.7 
					39.2,245.8 39.4,244.7 39.2,243.7 38.7,242.7 38,242 37,241.5 36,241.3 34.9,241.5 34,242 33.2,242.7 32.8,243.7 32.6,244.7 
					34.8,244.7 34.9,245 35,245.4 35.3,245.6 35.6,245.8 36,245.9 36.4,245.8 36.7,245.6 37,245.4 37.1,245 37.2,244.7 37.1,244.3 
					37,244 36.7,243.7 36.4,243.5 36,243.5 35.6,243.5 35.3,243.7 35,244 34.9,244.3 34.8,244.7 				"/>
				<polygon class="st1" points="3.8,230.3 4,231.4 4.5,232.3 5.2,233 6.2,233.5 7.2,233.6 8.2,233.5 9.2,233 9.9,232.3 10.4,231.4 
					10.6,230.3 10.4,229.3 9.9,228.3 9.2,227.6 8.2,227.1 7.2,226.9 6.2,227.1 5.2,227.6 4.5,228.3 4,229.3 3.8,230.3 6,230.3 
					6.1,230.6 6.2,231 6.5,231.2 6.8,231.4 7.2,231.5 7.6,231.4 7.9,231.2 8.2,231 8.3,230.6 8.4,230.3 8.3,229.9 8.2,229.6 
					7.9,229.3 7.6,229.1 7.2,229.1 6.8,229.1 6.5,229.3 6.2,229.6 6.1,229.9 6,230.3 				"/>
				<polygon class="st2" points="3.8,230.3 4,231.4 4.5,232.3 5.2,233 6.2,233.5 7.2,233.6 8.2,233.5 9.2,233 9.9,232.3 10.4,231.4 
					10.6,230.3 10.4,229.3 9.9,228.3 9.2,227.6 8.2,227.1 7.2,226.9 6.2,227.1 5.2,227.6 4.5,228.3 4,229.3 3.8,230.3 6,230.3 
					6.1,230.6 6.2,231 6.5,231.2 6.8,231.4 7.2,231.5 7.6,231.4 7.9,231.2 8.2,231 8.3,230.6 8.4,230.3 8.3,229.9 8.2,229.6 
					7.9,229.3 7.6,229.1 7.2,229.1 6.8,229.1 6.5,229.3 6.2,229.6 6.1,229.9 6,230.3 				"/>
				<line class="st4" x1="7.2" y1="230.3" x2="14.4" y2="237.5"/>
				<line class="st4" x1="50.4" y1="273.5" x2="64.8" y2="273.5"/>
				<line class="st4" x1="28.8" y1="273.5" x2="43.2" y2="273.5"/>
				<line class="st5" x1="14.4" y1="244.7" x2="36" y2="244.7"/>
				<line class="st5" x1="14.4" y1="251.9" x2="36" y2="251.9"/>
				<line class="st5" x1="42.3" y1="208.1" x2="42.3" y2="165.8"/>
				<line class="st5" x1="42.3" y1="109.2" x2="42.3" y2="151.5"/>
				<line class="st5" x1="42.3" y1="94.8" x2="42.3" y2="52.6"/>
				<line class="st5" x1="98.9" y1="208.1" x2="98.9" y2="165.8"/>
				<line class="st5" x1="98.9" y1="151.5" x2="98.9" y2="109.2"/>
				<line class="st5" x1="98.9" y1="94.8" x2="98.9" y2="52.6"/>
				<line class="st5" x1="155.6" y1="208.1" x2="155.6" y2="165.8"/>
				<line class="st5" x1="155.6" y1="151.5" x2="155.6" y2="109.2"/>
				<line class="st5" x1="155.6" y1="94.8" x2="155.6" y2="52.6"/>
				<line class="st5" x1="212.3" y1="208.1" x2="212.3" y2="165.8"/>
				<line class="st5" x1="212.3" y1="151.5" x2="212.3" y2="109.2"/>
				<line class="st5" x1="212.3" y1="94.8" x2="212.3" y2="52.6"/>
				<line class="st5" x1="75.4" y1="218.2" x2="71" y2="222.5"/>
				<line class="st5" x1="127.7" y1="222.5" x2="123.4" y2="218.2"/>
				<line class="st5" x1="123.4" y1="218.2" x2="75.4" y2="218.2"/>
				<line class="st5" x1="127.7" y1="222.5" x2="132.1" y2="218.2"/>
				<line class="st5" x1="180.1" y1="218.2" x2="184.4" y2="222.5"/>
				<line class="st5" x1="132.1" y1="218.2" x2="180.1" y2="218.2"/>
				<line class="st5" x1="184.4" y1="222.5" x2="188.8" y2="218.2"/>
				<line class="st5" x1="236.7" y1="218.2" x2="241.1" y2="222.5"/>
				<line class="st5" x1="188.8" y1="218.2" x2="236.7" y2="218.2"/>
				<line class="st5" x1="71" y1="165.8" x2="75.4" y2="161.5"/>
				<line class="st5" x1="123.4" y1="161.5" x2="127.7" y2="165.8"/>
				<line class="st5" x1="75.4" y1="161.5" x2="123.4" y2="161.5"/>
				<line class="st5" x1="127.7" y1="165.8" x2="132.1" y2="161.5"/>
				<line class="st5" x1="180.1" y1="161.5" x2="184.4" y2="165.8"/>
				<line class="st5" x1="132.1" y1="161.5" x2="180.1" y2="161.5"/>
				<line class="st5" x1="184.4" y1="165.8" x2="188.8" y2="161.5"/>
				<line class="st5" x1="236.7" y1="161.5" x2="241.1" y2="165.8"/>
				<line class="st5" x1="188.8" y1="161.5" x2="236.7" y2="161.5"/>
				<line class="st5" x1="71" y1="109.2" x2="75.4" y2="104.8"/>
				<line class="st5" x1="123.4" y1="104.8" x2="127.7" y2="109.2"/>
				<line class="st5" x1="75.4" y1="104.8" x2="123.4" y2="104.8"/>
				<line class="st5" x1="127.7" y1="109.2" x2="132.1" y2="104.8"/>
				<line class="st5" x1="180.1" y1="104.8" x2="184.4" y2="109.2"/>
				<line class="st5" x1="132.1" y1="104.8" x2="180.1" y2="104.8"/>
				<line class="st5" x1="184.4" y1="109.2" x2="188.8" y2="104.8"/>
				<line class="st5" x1="236.7" y1="104.8" x2="241.1" y2="109.2"/>
				<line class="st5" x1="188.8" y1="104.8" x2="236.7" y2="104.8"/>
				<line class="st5" x1="71" y1="52.6" x2="75.4" y2="48.2"/>
				<line class="st5" x1="123.4" y1="48.2" x2="127.7" y2="52.6"/>
				<line class="st5" x1="75.4" y1="48.2" x2="123.4" y2="48.2"/>
				<line class="st5" x1="127.7" y1="52.6" x2="132.1" y2="48.2"/>
				<line class="st5" x1="180.1" y1="48.2" x2="184.4" y2="52.6"/>
				<line class="st5" x1="132.1" y1="48.2" x2="180.1" y2="48.2"/>
				<line class="st5" x1="184.4" y1="52.6" x2="188.8" y2="48.2"/>
				<line class="st5" x1="236.7" y1="48.2" x2="241.1" y2="52.6"/>
				<line class="st5" x1="188.8" y1="48.2" x2="236.7" y2="48.2"/>
				<line class="st5" x1="14.4" y1="195.1" x2="41.8" y2="222.4"/>
				<line class="st5" x1="14.4" y1="165.5" x2="14.4" y2="195.1"/>
				<line class="st5" x1="14.4" y1="158.3" x2="10.8" y2="161.9"/>
				<line class="st5" x1="10.8" y1="161.9" x2="10.8" y2="197.9"/>
				<line class="st5" x1="10.8" y1="197.9" x2="43.2" y2="230.3"/>
				<line class="st5" x1="43.2" y1="230.3" x2="91.4" y2="230.3"/>
				<line class="st5" x1="91.4" y1="230.3" x2="99.3" y2="222.4"/>
				<line class="st5" x1="14.4" y1="151.1" x2="7.2" y2="158.3"/>
				<line class="st5" x1="7.2" y1="158.3" x2="7.2" y2="201.5"/>
				<line class="st5" x1="7.2" y1="201.5" x2="39.6" y2="233.9"/>
				<line class="st5" x1="39.6" y1="233.9" x2="144.7" y2="233.9"/>
				<line class="st5" x1="144.7" y1="233.9" x2="155.5" y2="223.1"/>
				<line class="st5" x1="14.4" y1="143.9" x2="3.6" y2="154.7"/>
				<line class="st5" x1="3.6" y1="154.7" x2="3.6" y2="205.1"/>
				<line class="st5" x1="3.6" y1="205.1" x2="36" y2="237.5"/>
				<line class="st5" x1="36" y1="237.5" x2="197.2" y2="237.5"/>
				<line class="st5" x1="197.2" y1="237.5" x2="212.3" y2="222.4"/>
				<line class="st5" x1="14.4" y1="136.7" x2="21.6" y2="143.9"/>
				<line class="st5" x1="21.6" y1="143.9" x2="21.6" y2="194.3"/>
				<line class="st5" x1="21.6" y1="194.3" x2="43.2" y2="215.9"/>
				<line class="st5" x1="43.2" y1="215.9" x2="64.8" y2="215.9"/>
				<line class="st5" x1="64.8" y1="215.9" x2="71.2" y2="222.4"/>
				<line class="st5" x1="14.4" y1="129.5" x2="51.1" y2="166.3"/>
				<line class="st5" x1="51.1" y1="166.3" x2="71.2" y2="166.3"/>
				<line class="st5" x1="14.4" y1="122.3" x2="21.6" y2="122.3"/>
				<line class="st5" x1="21.6" y1="122.3" x2="39.6" y2="104.3"/>
				<line class="st5" x1="39.6" y1="104.3" x2="66.2" y2="104.3"/>
				<line class="st5" x1="66.2" y1="104.3" x2="71.2" y2="109.4"/>
				<line class="st5" x1="14.4" y1="115.1" x2="21.6" y2="115.1"/>
				<line class="st5" x1="21.6" y1="115.1" x2="36" y2="100.7"/>
				<line class="st5" x1="36" y1="100.7" x2="36" y2="50.4"/>
				<line class="st5" x1="36" y1="50.4" x2="39.6" y2="46.8"/>
				<line class="st5" x1="39.6" y1="46.8" x2="65.5" y2="46.8"/>
				<line class="st5" x1="65.5" y1="46.8" x2="71.2" y2="52.6"/>
				<circle class="st1" cx="42.3" cy="222.5" r="2.3"/>
				<circle class="st2" cx="42.3" cy="222.5" r="2.3"/>
				<circle class="st1" cx="42.3" cy="222.5" r="1.6"/>
				<circle class="st6" cx="42.3" cy="222.5" r="1.6"/>
				<circle class="st1" cx="42.3" cy="208.1" r="2.3"/>
				<circle class="st2" cx="42.3" cy="208.1" r="2.3"/>
				<circle class="st1" cx="42.3" cy="208.1" r="1.6"/>
				<circle class="st6" cx="42.3" cy="208.1" r="1.6"/>
				<circle class="st1" cx="71" cy="208.1" r="2.3"/>
				<circle class="st2" cx="71" cy="208.1" r="2.3"/>
				<circle class="st1" cx="71" cy="208.1" r="1.6"/>
				<circle class="st6" cx="71" cy="208.1" r="1.6"/>
				<circle class="st1" cx="71" cy="222.5" r="2.3"/>
				<circle class="st2" cx="71" cy="222.5" r="2.3"/>
				<circle class="st1" cx="71" cy="222.5" r="1.6"/>
				<circle class="st6" cx="71" cy="222.5" r="1.6"/>
				<circle class="st1" cx="98.9" cy="222.5" r="2.3"/>
				<circle class="st2" cx="98.9" cy="222.5" r="2.3"/>
				<circle class="st1" cx="98.9" cy="222.5" r="1.6"/>
				<circle class="st6" cx="98.9" cy="222.5" r="1.6"/>
				<circle class="st1" cx="98.9" cy="208.1" r="2.3"/>
				<circle class="st2" cx="98.9" cy="208.1" r="2.3"/>
				<circle class="st1" cx="98.9" cy="208.1" r="1.6"/>
				<circle class="st6" cx="98.9" cy="208.1" r="1.6"/>
				<circle class="st1" cx="127.7" cy="208.1" r="2.3"/>
				<circle class="st2" cx="127.7" cy="208.1" r="2.3"/>
				<circle class="st1" cx="127.7" cy="208.1" r="1.6"/>
				<circle class="st6" cx="127.7" cy="208.1" r="1.6"/>
				<circle class="st1" cx="127.7" cy="222.5" r="2.3"/>
				<circle class="st2" cx="127.7" cy="222.5" r="2.3"/>
				<circle class="st1" cx="127.7" cy="222.5" r="1.6"/>
				<circle class="st6" cx="127.7" cy="222.5" r="1.6"/>
				<circle class="st1" cx="155.6" cy="222.5" r="2.3"/>
				<circle class="st2" cx="155.6" cy="222.5" r="2.3"/>
				<circle class="st1" cx="155.6" cy="222.5" r="1.6"/>
				<circle class="st6" cx="155.6" cy="222.5" r="1.6"/>
				<circle class="st1" cx="155.6" cy="208.1" r="2.3"/>
				<circle class="st2" cx="155.6" cy="208.1" r="2.3"/>
				<circle class="st1" cx="155.6" cy="208.1" r="1.6"/>
				<circle class="st6" cx="155.6" cy="208.1" r="1.6"/>
				<circle class="st1" cx="184.4" cy="208.1" r="2.3"/>
				<circle class="st2" cx="184.4" cy="208.1" r="2.3"/>
				<circle class="st1" cx="184.4" cy="208.1" r="1.6"/>
				<circle class="st6" cx="184.4" cy="208.1" r="1.6"/>
				<circle class="st1" cx="184.4" cy="222.5" r="2.3"/>
				<circle class="st2" cx="184.4" cy="222.5" r="2.3"/>
				<circle class="st1" cx="184.4" cy="222.5" r="1.6"/>
				<circle class="st6" cx="184.4" cy="222.5" r="1.6"/>
				<circle class="st1" cx="212.3" cy="222.5" r="2.3"/>
				<circle class="st2" cx="212.3" cy="222.5" r="2.3"/>
				<circle class="st1" cx="212.3" cy="222.5" r="1.6"/>
				<circle class="st6" cx="212.3" cy="222.5" r="1.6"/>
				<circle class="st1" cx="212.3" cy="208.1" r="2.3"/>
				<circle class="st2" cx="212.3" cy="208.1" r="2.3"/>
				<circle class="st1" cx="212.3" cy="208.1" r="1.6"/>
				<circle class="st6" cx="212.3" cy="208.1" r="1.6"/>
				<circle class="st1" cx="241.1" cy="208.1" r="2.3"/>
				<circle class="st2" cx="241.1" cy="208.1" r="2.3"/>
				<circle class="st1" cx="241.1" cy="208.1" r="1.6"/>
				<circle class="st6" cx="241.1" cy="208.1" r="1.6"/>
				<circle class="st1" cx="241.1" cy="222.5" r="2.3"/>
				<circle class="st2" cx="241.1" cy="222.5" r="2.3"/>
				<circle class="st1" cx="241.1" cy="222.5" r="1.6"/>
				<circle class="st6" cx="241.1" cy="222.5" r="1.6"/>
				<circle class="st1" cx="42.3" cy="165.8" r="2.3"/>
				<circle class="st2" cx="42.3" cy="165.8" r="2.3"/>
				<circle class="st1" cx="42.3" cy="165.8" r="1.6"/>
				<circle class="st6" cx="42.3" cy="165.8" r="1.6"/>
				<circle class="st1" cx="42.3" cy="151.5" r="2.3"/>
				<circle class="st2" cx="42.3" cy="151.5" r="2.3"/>
				<circle class="st1" cx="42.3" cy="151.5" r="1.6"/>
				<circle class="st6" cx="42.3" cy="151.5" r="1.6"/>
				<circle class="st1" cx="71" cy="151.5" r="2.3"/>
				<circle class="st2" cx="71" cy="151.5" r="2.3"/>
				<circle class="st1" cx="71" cy="151.5" r="1.6"/>
				<circle class="st6" cx="71" cy="151.5" r="1.6"/>
				<circle class="st1" cx="71" cy="165.8" r="2.3"/>
				<circle class="st2" cx="71" cy="165.8" r="2.3"/>
				<circle class="st1" cx="71" cy="165.8" r="1.6"/>
				<circle class="st6" cx="71" cy="165.8" r="1.6"/>
				<circle class="st1" cx="98.9" cy="165.8" r="2.3"/>
				<circle class="st2" cx="98.9" cy="165.8" r="2.3"/>
				<circle class="st1" cx="98.9" cy="165.8" r="1.6"/>
				<circle class="st6" cx="98.9" cy="165.8" r="1.6"/>
				<circle class="st1" cx="98.9" cy="151.5" r="2.3"/>
				<circle class="st2" cx="98.9" cy="151.5" r="2.3"/>
				<circle class="st1" cx="98.9" cy="151.5" r="1.6"/>
				<circle class="st6" cx="98.9" cy="151.5" r="1.6"/>
				<circle class="st1" cx="127.7" cy="151.5" r="2.3"/>
				<circle class="st2" cx="127.7" cy="151.5" r="2.3"/>
				<circle class="st1" cx="127.7" cy="151.5" r="1.6"/>
				<circle class="st6" cx="127.7" cy="151.5" r="1.6"/>
				<circle class="st1" cx="127.7" cy="165.8" r="2.3"/>
				<circle class="st2" cx="127.7" cy="165.8" r="2.3"/>
				<circle class="st1" cx="127.7" cy="165.8" r="1.6"/>
				<circle class="st6" cx="127.7" cy="165.8" r="1.6"/>
				<circle class="st1" cx="155.6" cy="165.8" r="2.3"/>
				<circle class="st2" cx="155.6" cy="165.8" r="2.3"/>
				<circle class="st1" cx="155.6" cy="165.8" r="1.6"/>
				<circle class="st6" cx="155.6" cy="165.8" r="1.6"/>
				<circle class="st1" cx="155.6" cy="151.5" r="2.3"/>
				<circle class="st2" cx="155.6" cy="151.5" r="2.3"/>
				<circle class="st1" cx="155.6" cy="151.5" r="1.6"/>
				<circle class="st6" cx="155.6" cy="151.5" r="1.6"/>
				<circle class="st1" cx="184.4" cy="151.5" r="2.3"/>
				<circle class="st2" cx="184.4" cy="151.5" r="2.3"/>
				<circle class="st1" cx="184.4" cy="151.5" r="1.6"/>
				<circle class="st6" cx="184.4" cy="151.5" r="1.6"/>
				<circle class="st1" cx="184.4" cy="165.8" r="2.3"/>
				<circle class="st2" cx="184.4" cy="165.8" r="2.3"/>
				<circle class="st1" cx="184.4" cy="165.8" r="1.6"/>
				<circle class="st6" cx="184.4" cy="165.8" r="1.6"/>
				<circle class="st1" cx="212.3" cy="165.8" r="2.3"/>
				<circle class="st2" cx="212.3" cy="165.8" r="2.3"/>
				<circle class="st1" cx="212.3" cy="165.8" r="1.6"/>
				<circle class="st6" cx="212.3" cy="165.8" r="1.6"/>
				<circle class="st1" cx="212.3" cy="151.5" r="2.3"/>
				<circle class="st2" cx="212.3" cy="151.5" r="2.3"/>
				<circle class="st1" cx="212.3" cy="151.5" r="1.6"/>
				<circle class="st6" cx="212.3" cy="151.5" r="1.6"/>
				<circle class="st1" cx="241.1" cy="151.5" r="2.3"/>
				<circle class="st2" cx="241.1" cy="151.5" r="2.3"/>
				<circle class="st1" cx="241.1" cy="151.5" r="1.6"/>
				<circle class="st6" cx="241.1" cy="151.5" r="1.6"/>
				<circle class="st1" cx="241.1" cy="165.8" r="2.3"/>
				<circle class="st2" cx="241.1" cy="165.8" r="2.3"/>
				<circle class="st1" cx="241.1" cy="165.8" r="1.6"/>
				<circle class="st6" cx="241.1" cy="165.8" r="1.6"/>
				<circle class="st1" cx="42.3" cy="109.2" r="2.3"/>
				<circle class="st2" cx="42.3" cy="109.2" r="2.3"/>
				<circle class="st1" cx="42.3" cy="109.2" r="1.6"/>
				<circle class="st6" cx="42.3" cy="109.2" r="1.6"/>
				<circle class="st1" cx="42.3" cy="94.8" r="2.3"/>
				<circle class="st2" cx="42.3" cy="94.8" r="2.3"/>
				<circle class="st1" cx="42.3" cy="94.8" r="1.6"/>
				<circle class="st6" cx="42.3" cy="94.8" r="1.6"/>
				<circle class="st1" cx="71" cy="94.8" r="2.3"/>
				<circle class="st2" cx="71" cy="94.8" r="2.3"/>
				<circle class="st1" cx="71" cy="94.8" r="1.6"/>
				<circle class="st6" cx="71" cy="94.8" r="1.6"/>
				<circle class="st1" cx="71" cy="109.2" r="2.3"/>
				<circle class="st2" cx="71" cy="109.2" r="2.3"/>
				<circle class="st1" cx="71" cy="109.2" r="1.6"/>
				<circle class="st6" cx="71" cy="109.2" r="1.6"/>
				<circle class="st1" cx="98.9" cy="109.2" r="2.3"/>
				<circle class="st2" cx="98.9" cy="109.2" r="2.3"/>
				<circle class="st1" cx="98.9" cy="109.2" r="1.6"/>
				<circle class="st6" cx="98.9" cy="109.2" r="1.6"/>
				<circle class="st1" cx="98.9" cy="94.8" r="2.3"/>
				<circle class="st2" cx="98.9" cy="94.8" r="2.3"/>
				<circle class="st1" cx="98.9" cy="94.8" r="1.6"/>
				<circle class="st6" cx="98.9" cy="94.8" r="1.6"/>
				<circle class="st1" cx="127.7" cy="94.8" r="2.3"/>
				<circle class="st2" cx="127.7" cy="94.8" r="2.3"/>
				<circle class="st1" cx="127.7" cy="94.8" r="1.6"/>
				<circle class="st6" cx="127.7" cy="94.8" r="1.6"/>
				<circle class="st1" cx="127.7" cy="109.2" r="2.3"/>
				<circle class="st2" cx="127.7" cy="109.2" r="2.3"/>
				<circle class="st1" cx="127.7" cy="109.2" r="1.6"/>
				<circle class="st6" cx="127.7" cy="109.2" r="1.6"/>
				<circle class="st1" cx="155.6" cy="109.2" r="2.3"/>
				<circle class="st2" cx="155.6" cy="109.2" r="2.3"/>
				<circle class="st1" cx="155.6" cy="109.2" r="1.6"/>
				<circle class="st6" cx="155.6" cy="109.2" r="1.6"/>
				<circle class="st1" cx="155.6" cy="94.8" r="2.3"/>
				<circle class="st2" cx="155.6" cy="94.8" r="2.3"/>
				<circle class="st1" cx="155.6" cy="94.8" r="1.6"/>
				<circle class="st6" cx="155.6" cy="94.8" r="1.6"/>
				<circle class="st1" cx="184.4" cy="94.8" r="2.3"/>
				<circle class="st2" cx="184.4" cy="94.8" r="2.3"/>
				<circle class="st1" cx="184.4" cy="94.8" r="1.6"/>
				<circle class="st6" cx="184.4" cy="94.8" r="1.6"/>
				<circle class="st1" cx="184.4" cy="109.2" r="2.3"/>
				<circle class="st2" cx="184.4" cy="109.2" r="2.3"/>
				<circle class="st1" cx="184.4" cy="109.2" r="1.6"/>
				<circle class="st6" cx="184.4" cy="109.2" r="1.6"/>
				<circle class="st1" cx="212.3" cy="109.2" r="2.3"/>
				<circle class="st2" cx="212.3" cy="109.2" r="2.3"/>
				<circle class="st1" cx="212.3" cy="109.2" r="1.6"/>
				<circle class="st6" cx="212.3" cy="109.2" r="1.6"/>
				<circle class="st1" cx="212.3" cy="94.8" r="2.3"/>
				<circle class="st2" cx="212.3" cy="94.8" r="2.3"/>
				<circle class="st1" cx="212.3" cy="94.8" r="1.6"/>
				<circle class="st6" cx="212.3" cy="94.8" r="1.6"/>
				<circle class="st1" cx="241.1" cy="94.8" r="2.3"/>
				<circle class="st2" cx="241.1" cy="94.8" r="2.3"/>
				<circle class="st1" cx="241.1" cy="94.8" r="1.6"/>
				<circle class="st6" cx="241.1" cy="94.8" r="1.6"/>
				<circle class="st1" cx="241.1" cy="109.2" r="2.3"/>
				<circle class="st2" cx="241.1" cy="109.2" r="2.3"/>
				<circle class="st1" cx="241.1" cy="109.2" r="1.6"/>
				<circle class="st6" cx="241.1" cy="109.2" r="1.6"/>
				<circle class="st1" cx="42.3" cy="52.6" r="2.3"/>
				<circle class="st2" cx="42.3" cy="52.6" r="2.3"/>
				<circle class="st1" cx="42.3" cy="52.6" r="1.6"/>
				<circle class="st6" cx="42.3" cy="52.6" r="1.6"/>
				<circle class="st1" cx="42.3" cy="38.2" r="2.3"/>
				<circle class="st2" cx="42.3" cy="38.2" r="2.3"/>
				<circle class="st1" cx="42.3" cy="38.2" r="1.6"/>
				<circle class="st6" cx="42.3" cy="38.2" r="1.6"/>
				<circle class="st1" cx="71" cy="38.2" r="2.3"/>
				<circle class="st2" cx="71" cy="38.2" r="2.3"/>
				<circle class="st1" cx="71" cy="38.2" r="1.6"/>
				<circle class="st6" cx="71" cy="38.2" r="1.6"/>
				<circle class="st1" cx="71" cy="52.6" r="2.3"/>
				<circle class="st2" cx="71" cy="52.6" r="2.3"/>
				<circle class="st1" cx="71" cy="52.6" r="1.6"/>
				<circle class="st6" cx="71" cy="52.6" r="1.6"/>
				<circle class="st1" cx="98.9" cy="52.6" r="2.3"/>
				<circle class="st2" cx="98.9" cy="52.6" r="2.3"/>
				<circle class="st1" cx="98.9" cy="52.6" r="1.6"/>
				<circle class="st6" cx="98.9" cy="52.6" r="1.6"/>
				<circle class="st1" cx="98.9" cy="38.2" r="2.3"/>
				<circle class="st2" cx="98.9" cy="38.2" r="2.3"/>
				<circle class="st1" cx="98.9" cy="38.2" r="1.6"/>
				<circle class="st6" cx="98.9" cy="38.2" r="1.6"/>
				<circle class="st1" cx="127.7" cy="38.2" r="2.3"/>
				<circle class="st2" cx="127.7" cy="38.2" r="2.3"/>
				<circle class="st1" cx="127.7" cy="38.2" r="1.6"/>
				<circle class="st6" cx="127.7" cy="38.2" r="1.6"/>
				<circle class="st1" cx="127.7" cy="52.6" r="2.3"/>
				<circle class="st2" cx="127.7" cy="52.6" r="2.3"/>
				<circle class="st1" cx="127.7" cy="52.6" r="1.6"/>
				<circle class="st6" cx="127.7" cy="52.6" r="1.6"/>
				<circle class="st1" cx="155.6" cy="52.6" r="2.3"/>
				<circle class="st2" cx="155.6" cy="52.6" r="2.3"/>
				<circle class="st1" cx="155.6" cy="52.6" r="1.6"/>
				<circle class="st6" cx="155.6" cy="52.6" r="1.6"/>
				<circle class="st1" cx="155.6" cy="38.2" r="2.3"/>
				<circle class="st2" cx="155.6" cy="38.2" r="2.3"/>
				<circle class="st1" cx="155.6" cy="38.2" r="1.6"/>
				<circle class="st6" cx="155.6" cy="38.2" r="1.6"/>
				<circle class="st1" cx="184.4" cy="38.2" r="2.3"/>
				<circle class="st2" cx="184.4" cy="38.2" r="2.3"/>
				<circle class="st1" cx="184.4" cy="38.2" r="1.6"/>
				<circle class="st6" cx="184.4" cy="38.2" r="1.6"/>
				<circle class="st1" cx="184.4" cy="52.6" r="2.3"/>
				<circle class="st2" cx="184.4" cy="52.6" r="2.3"/>
				<circle class="st1" cx="184.4" cy="52.6" r="1.6"/>
				<circle class="st6" cx="184.4" cy="52.6" r="1.6"/>
				<circle class="st1" cx="212.3" cy="52.6" r="2.3"/>
				<circle class="st2" cx="212.3" cy="52.6" r="2.3"/>
				<circle class="st1" cx="212.3" cy="52.6" r="1.6"/>
				<circle class="st6" cx="212.3" cy="52.6" r="1.6"/>
				<circle class="st1" cx="212.3" cy="38.2" r="2.3"/>
				<circle class="st2" cx="212.3" cy="38.2" r="2.3"/>
				<circle class="st1" cx="212.3" cy="38.2" r="1.6"/>
				<circle class="st6" cx="212.3" cy="38.2" r="1.6"/>
				<circle class="st1" cx="241.1" cy="38.2" r="2.3"/>
				<circle class="st2" cx="241.1" cy="38.2" r="2.3"/>
				<circle class="st1" cx="241.1" cy="38.2" r="1.6"/>
				<circle class="st6" cx="241.1" cy="38.2" r="1.6"/>
				<circle class="st1" cx="241.1" cy="52.6" r="2.3"/>
				<circle class="st2" cx="241.1" cy="52.6" r="2.3"/>
				<circle class="st1" cx="241.1" cy="52.6" r="1.6"/>
				<circle class="st6" cx="241.1" cy="52.6" r="1.6"/>
				<circle class="st1" cx="64.8" cy="273.5" r="1.1"/>
				<circle class="st2" cx="64.8" cy="273.5" r="1.1"/>
				<circle class="st1" cx="64.8" cy="273.5" r="0.5"/>
				<circle class="st6" cx="64.8" cy="273.5" r="0.5"/>
				<circle class="st1" cx="7.2" cy="230.3" r="1.1"/>
				<circle class="st2" cx="7.2" cy="230.3" r="1.1"/>
				<circle class="st1" cx="7.2" cy="230.3" r="0.5"/>
				<circle class="st6" cx="7.2" cy="230.3" r="0.5"/>
				<circle class="st1" cx="28.8" cy="273.5" r="1.1"/>
				<circle class="st2" cx="28.8" cy="273.5" r="1.1"/>
				<circle class="st1" cx="28.8" cy="273.5" r="0.5"/>
				<circle class="st6" cx="28.8" cy="273.5" r="0.5"/>
				<circle class="st1" cx="36" cy="244.7" r="1.1"/>
				<circle class="st2" cx="36" cy="244.7" r="1.1"/>
				<circle class="st1" cx="36" cy="244.7" r="0.5"/>
				<circle class="st6" cx="36" cy="244.7" r="0.5"/>
				<circle class="st1" cx="36" cy="251.9" r="1.1"/>
				<circle class="st2" cx="36" cy="251.9" r="1.1"/>
				<circle class="st1" cx="36" cy="251.9" r="0.5"/>
				<circle class="st6" cx="36" cy="251.9" r="0.5"/>
				<line class="st2" x1="0" y1="0" x2="283.3" y2="0"/>
				<line class="st2" x1="283.3" y1="0" x2="283.3" y2="283.3"/>
				<line class="st2" x1="283.3" y1="283.3" x2="0" y2="283.3"/>
				<line class="st2" x1="0" y1="283.3" x2="0" y2="0"/>
				<circle class="st2" cx="14.4" cy="143.9" r="1.8"/>
				<circle class="st1" cx="14.4" cy="143.9" r="1.8"/>
				<circle class="st6" cx="14.4" cy="143.9" r="1.8"/>
				<circle class="st2" cx="14.4" cy="136.7" r="1.8"/>
				<circle class="st1" cx="14.4" cy="136.7" r="1.8"/>
				<circle class="st6" cx="14.4" cy="136.7" r="1.8"/>
				<circle class="st2" cx="14.4" cy="129.5" r="1.8"/>
				<circle class="st1" cx="14.4" cy="129.5" r="1.8"/>
				<circle class="st6" cx="14.4" cy="129.5" r="1.8"/>
				<circle class="st2" cx="14.4" cy="151.1" r="1.8"/>
				<circle class="st1" cx="14.4" cy="151.1" r="1.8"/>
				<circle class="st6" cx="14.4" cy="151.1" r="1.8"/>
				<circle class="st2" cx="14.4" cy="158.3" r="1.8"/>
				<circle class="st1" cx="14.4" cy="158.3" r="1.8"/>
				<circle class="st6" cx="14.4" cy="158.3" r="1.8"/>
				<circle class="st2" cx="14.4" cy="165.5" r="1.8"/>
				<circle class="st1" cx="14.4" cy="165.5" r="1.8"/>
				<circle class="st6" cx="14.4" cy="165.5" r="1.8"/>
				<circle class="st2" cx="14.4" cy="115.1" r="1.8"/>
				<circle class="st1" cx="14.4" cy="115.1" r="1.8"/>
				<circle class="st6" cx="14.4" cy="115.1" r="1.8"/>
				<circle class="st2" cx="14.4" cy="122.3" r="1.8"/>
				<circle class="st1" cx="14.4" cy="122.3" r="1.8"/>
				<circle class="st6" cx="14.4" cy="122.3" r="1.8"/>
				<circle class="st2" cx="43.2" cy="273.5" r="1.8"/>
				<circle class="st1" cx="43.2" cy="273.5" r="1.8"/>
				<circle class="st6" cx="43.2" cy="273.5" r="1.8"/>
				<circle class="st2" cx="50.4" cy="273.5" r="1.8"/>
				<circle class="st1" cx="50.4" cy="273.5" r="1.8"/>
				<circle class="st6" cx="50.4" cy="273.5" r="1.8"/>
				<circle class="st2" cx="14.4" cy="251.9" r="1.8"/>
				<circle class="st1" cx="14.4" cy="251.9" r="1.8"/>
				<circle class="st6" cx="14.4" cy="251.9" r="1.8"/>
				<circle class="st2" cx="14.4" cy="244.7" r="1.8"/>
				<circle class="st1" cx="14.4" cy="244.7" r="1.8"/>
				<circle class="st6" cx="14.4" cy="244.7" r="1.8"/>
				<circle class="st2" cx="14.4" cy="237.5" r="1.8"/>
				<circle class="st1" cx="14.4" cy="237.5" r="1.8"/>
				<circle class="st6" cx="14.4" cy="237.5" r="1.8"/>
				<circle class="st2" cx="28.8" cy="273.5" r="1.8"/>
				<circle class="st1" cx="28.8" cy="273.5" r="1.8"/>
				<circle class="st6" cx="28.8" cy="273.5" r="1.8"/>
				<circle class="st2" cx="64.8" cy="273.5" r="1.8"/>
				<circle class="st1" cx="64.8" cy="273.5" r="1.8"/>
				<circle class="st6" cx="64.8" cy="273.5" r="1.8"/>
				<circle class="st2" cx="36" cy="251.9" r="1.8"/>
				<circle class="st1" cx="36" cy="251.9" r="1.8"/>
				<circle class="st6" cx="36" cy="251.9" r="1.8"/>
				<circle class="st2" cx="36" cy="244.7" r="1.8"/>
				<circle class="st1" cx="36" cy="244.7" r="1.8"/>
				<circle class="st6" cx="36" cy="244.7" r="1.8"/>
				<circle class="st2" cx="7.2" cy="230.3" r="1.8"/>
				<circle class="st1" cx="7.2" cy="230.3" r="1.8"/>
				<circle class="st6" cx="7.2" cy="230.3" r="1.8"/>
			</g>
		</g>
	</g>
</g>
</svg>
