%
M48
M72
T01C0.01378
T02C0.04331
T03C0.05000
%
T01
X15237Y325237
X55237Y345237
X55237Y365237
X45237Y385237
X95237Y385237
T02
X63977Y58229
X63977Y78229
X103977Y78229
X103977Y58229
X142717Y58229
X142717Y78229
X182717Y78229
X182717Y58229
X221457Y58229
X221457Y78229
X261457Y78229
X261457Y58229
X300198Y58229
X300198Y78229
X340198Y78229
X340198Y58229
X340198Y136969
X340198Y156969
X300198Y156969
X300198Y136969
X261457Y136969
X261457Y156969
X221457Y156969
X221457Y136969
X182717Y136969
X182717Y156969
X142717Y156969
X142717Y136969
X103977Y136969
X103977Y156969
X63977Y156969
X63977Y136969
X63977Y215709
X63977Y235709
X103977Y235709
X103977Y215709
X142717Y215709
X142717Y235709
X182717Y235709
X182717Y215709
X221457Y215709
X221457Y235709
X261457Y235709
X261457Y215709
X300198Y215709
X300198Y235709
X340198Y235709
X340198Y215709
X340198Y294450
X340198Y314450
X300198Y314450
X300198Y294450
X261457Y294450
X261457Y314450
X221457Y314450
X221457Y294450
X182717Y294450
X182717Y314450
X142717Y314450
X142717Y294450
X103977Y294450
X103977Y314450
X63977Y314450
X63977Y294450
T03
X25237Y335237
X25237Y345237
X25237Y355237
X15237Y325237
X55237Y345237
X55237Y365237
X45237Y385237
X65237Y385237
X75237Y385237
X95237Y385237
X25237Y235237
X25237Y225237
X25237Y215237
X25237Y205237
X25237Y195237
X25237Y185237
X25237Y175237
X25237Y165237
M30
