G75*
%MOIN*%
%OFA0B0*%
%FSLAX25Y25*%
%IPPOS*%
%LPD*%
%AMOC8*
5,1,8,0,0,1.08239X$1,22.5*
%
%ADD10C,0.01500*%
%ADD11R,0.10000X0.10000*%
%ADD12C,0.03000*%
%ADD13C,0.06496*%
%ADD14C,0.01181*%
%ADD15C,0.02978*%
%ADD16C,0.00600*%
D10*
X0022075Y0165237D02*
X0022077Y0165349D01*
X0022083Y0165461D01*
X0022093Y0165573D01*
X0022107Y0165684D01*
X0022125Y0165795D01*
X0022146Y0165905D01*
X0022172Y0166015D01*
X0022202Y0166123D01*
X0022235Y0166230D01*
X0022272Y0166336D01*
X0022313Y0166441D01*
X0022358Y0166544D01*
X0022406Y0166645D01*
X0022458Y0166745D01*
X0022513Y0166842D01*
X0022571Y0166938D01*
X0022633Y0167031D01*
X0022699Y0167123D01*
X0022767Y0167212D01*
X0022839Y0167298D01*
X0022914Y0167382D01*
X0022991Y0167463D01*
X0023072Y0167541D01*
X0023155Y0167617D01*
X0023241Y0167689D01*
X0023329Y0167758D01*
X0023420Y0167824D01*
X0023512Y0167887D01*
X0023608Y0167947D01*
X0023705Y0168003D01*
X0023804Y0168056D01*
X0023905Y0168105D01*
X0024008Y0168150D01*
X0024112Y0168192D01*
X0024217Y0168230D01*
X0024324Y0168264D01*
X0024432Y0168295D01*
X0024541Y0168321D01*
X0024651Y0168344D01*
X0024762Y0168363D01*
X0024873Y0168378D01*
X0024985Y0168389D01*
X0025097Y0168396D01*
X0025209Y0168399D01*
X0025321Y0168398D01*
X0025433Y0168393D01*
X0025545Y0168384D01*
X0025657Y0168371D01*
X0025768Y0168354D01*
X0025878Y0168333D01*
X0025987Y0168309D01*
X0026096Y0168280D01*
X0026203Y0168248D01*
X0026310Y0168211D01*
X0026415Y0168172D01*
X0026518Y0168128D01*
X0026620Y0168081D01*
X0026720Y0168030D01*
X0026818Y0167975D01*
X0026914Y0167918D01*
X0027008Y0167856D01*
X0027100Y0167792D01*
X0027190Y0167724D01*
X0027277Y0167653D01*
X0027361Y0167579D01*
X0027443Y0167502D01*
X0027522Y0167423D01*
X0027598Y0167340D01*
X0027671Y0167255D01*
X0027741Y0167167D01*
X0027808Y0167077D01*
X0027872Y0166985D01*
X0027932Y0166890D01*
X0027989Y0166794D01*
X0028043Y0166695D01*
X0028093Y0166594D01*
X0028139Y0166492D01*
X0028182Y0166388D01*
X0028221Y0166283D01*
X0028256Y0166177D01*
X0028288Y0166069D01*
X0028315Y0165960D01*
X0028339Y0165850D01*
X0028359Y0165740D01*
X0028375Y0165629D01*
X0028387Y0165517D01*
X0028395Y0165405D01*
X0028399Y0165293D01*
X0028399Y0165181D01*
X0028395Y0165069D01*
X0028387Y0164957D01*
X0028375Y0164845D01*
X0028359Y0164734D01*
X0028339Y0164624D01*
X0028315Y0164514D01*
X0028288Y0164405D01*
X0028256Y0164297D01*
X0028221Y0164191D01*
X0028182Y0164086D01*
X0028139Y0163982D01*
X0028093Y0163880D01*
X0028043Y0163779D01*
X0027989Y0163680D01*
X0027932Y0163584D01*
X0027872Y0163489D01*
X0027808Y0163397D01*
X0027741Y0163307D01*
X0027671Y0163219D01*
X0027598Y0163134D01*
X0027522Y0163051D01*
X0027443Y0162972D01*
X0027361Y0162895D01*
X0027277Y0162821D01*
X0027190Y0162750D01*
X0027100Y0162682D01*
X0027008Y0162618D01*
X0026914Y0162556D01*
X0026818Y0162499D01*
X0026720Y0162444D01*
X0026620Y0162393D01*
X0026518Y0162346D01*
X0026415Y0162302D01*
X0026310Y0162263D01*
X0026203Y0162226D01*
X0026096Y0162194D01*
X0025987Y0162165D01*
X0025878Y0162141D01*
X0025768Y0162120D01*
X0025657Y0162103D01*
X0025545Y0162090D01*
X0025433Y0162081D01*
X0025321Y0162076D01*
X0025209Y0162075D01*
X0025097Y0162078D01*
X0024985Y0162085D01*
X0024873Y0162096D01*
X0024762Y0162111D01*
X0024651Y0162130D01*
X0024541Y0162153D01*
X0024432Y0162179D01*
X0024324Y0162210D01*
X0024217Y0162244D01*
X0024112Y0162282D01*
X0024008Y0162324D01*
X0023905Y0162369D01*
X0023804Y0162418D01*
X0023705Y0162471D01*
X0023608Y0162527D01*
X0023512Y0162587D01*
X0023420Y0162650D01*
X0023329Y0162716D01*
X0023241Y0162785D01*
X0023155Y0162857D01*
X0023072Y0162933D01*
X0022991Y0163011D01*
X0022914Y0163092D01*
X0022839Y0163176D01*
X0022767Y0163262D01*
X0022699Y0163351D01*
X0022633Y0163443D01*
X0022571Y0163536D01*
X0022513Y0163632D01*
X0022458Y0163729D01*
X0022406Y0163829D01*
X0022358Y0163930D01*
X0022313Y0164033D01*
X0022272Y0164138D01*
X0022235Y0164244D01*
X0022202Y0164351D01*
X0022172Y0164459D01*
X0022146Y0164569D01*
X0022125Y0164679D01*
X0022107Y0164790D01*
X0022093Y0164901D01*
X0022083Y0165013D01*
X0022077Y0165125D01*
X0022075Y0165237D01*
X0022075Y0175237D02*
X0022077Y0175349D01*
X0022083Y0175461D01*
X0022093Y0175573D01*
X0022107Y0175684D01*
X0022125Y0175795D01*
X0022146Y0175905D01*
X0022172Y0176015D01*
X0022202Y0176123D01*
X0022235Y0176230D01*
X0022272Y0176336D01*
X0022313Y0176441D01*
X0022358Y0176544D01*
X0022406Y0176645D01*
X0022458Y0176745D01*
X0022513Y0176842D01*
X0022571Y0176938D01*
X0022633Y0177031D01*
X0022699Y0177123D01*
X0022767Y0177212D01*
X0022839Y0177298D01*
X0022914Y0177382D01*
X0022991Y0177463D01*
X0023072Y0177541D01*
X0023155Y0177617D01*
X0023241Y0177689D01*
X0023329Y0177758D01*
X0023420Y0177824D01*
X0023512Y0177887D01*
X0023608Y0177947D01*
X0023705Y0178003D01*
X0023804Y0178056D01*
X0023905Y0178105D01*
X0024008Y0178150D01*
X0024112Y0178192D01*
X0024217Y0178230D01*
X0024324Y0178264D01*
X0024432Y0178295D01*
X0024541Y0178321D01*
X0024651Y0178344D01*
X0024762Y0178363D01*
X0024873Y0178378D01*
X0024985Y0178389D01*
X0025097Y0178396D01*
X0025209Y0178399D01*
X0025321Y0178398D01*
X0025433Y0178393D01*
X0025545Y0178384D01*
X0025657Y0178371D01*
X0025768Y0178354D01*
X0025878Y0178333D01*
X0025987Y0178309D01*
X0026096Y0178280D01*
X0026203Y0178248D01*
X0026310Y0178211D01*
X0026415Y0178172D01*
X0026518Y0178128D01*
X0026620Y0178081D01*
X0026720Y0178030D01*
X0026818Y0177975D01*
X0026914Y0177918D01*
X0027008Y0177856D01*
X0027100Y0177792D01*
X0027190Y0177724D01*
X0027277Y0177653D01*
X0027361Y0177579D01*
X0027443Y0177502D01*
X0027522Y0177423D01*
X0027598Y0177340D01*
X0027671Y0177255D01*
X0027741Y0177167D01*
X0027808Y0177077D01*
X0027872Y0176985D01*
X0027932Y0176890D01*
X0027989Y0176794D01*
X0028043Y0176695D01*
X0028093Y0176594D01*
X0028139Y0176492D01*
X0028182Y0176388D01*
X0028221Y0176283D01*
X0028256Y0176177D01*
X0028288Y0176069D01*
X0028315Y0175960D01*
X0028339Y0175850D01*
X0028359Y0175740D01*
X0028375Y0175629D01*
X0028387Y0175517D01*
X0028395Y0175405D01*
X0028399Y0175293D01*
X0028399Y0175181D01*
X0028395Y0175069D01*
X0028387Y0174957D01*
X0028375Y0174845D01*
X0028359Y0174734D01*
X0028339Y0174624D01*
X0028315Y0174514D01*
X0028288Y0174405D01*
X0028256Y0174297D01*
X0028221Y0174191D01*
X0028182Y0174086D01*
X0028139Y0173982D01*
X0028093Y0173880D01*
X0028043Y0173779D01*
X0027989Y0173680D01*
X0027932Y0173584D01*
X0027872Y0173489D01*
X0027808Y0173397D01*
X0027741Y0173307D01*
X0027671Y0173219D01*
X0027598Y0173134D01*
X0027522Y0173051D01*
X0027443Y0172972D01*
X0027361Y0172895D01*
X0027277Y0172821D01*
X0027190Y0172750D01*
X0027100Y0172682D01*
X0027008Y0172618D01*
X0026914Y0172556D01*
X0026818Y0172499D01*
X0026720Y0172444D01*
X0026620Y0172393D01*
X0026518Y0172346D01*
X0026415Y0172302D01*
X0026310Y0172263D01*
X0026203Y0172226D01*
X0026096Y0172194D01*
X0025987Y0172165D01*
X0025878Y0172141D01*
X0025768Y0172120D01*
X0025657Y0172103D01*
X0025545Y0172090D01*
X0025433Y0172081D01*
X0025321Y0172076D01*
X0025209Y0172075D01*
X0025097Y0172078D01*
X0024985Y0172085D01*
X0024873Y0172096D01*
X0024762Y0172111D01*
X0024651Y0172130D01*
X0024541Y0172153D01*
X0024432Y0172179D01*
X0024324Y0172210D01*
X0024217Y0172244D01*
X0024112Y0172282D01*
X0024008Y0172324D01*
X0023905Y0172369D01*
X0023804Y0172418D01*
X0023705Y0172471D01*
X0023608Y0172527D01*
X0023512Y0172587D01*
X0023420Y0172650D01*
X0023329Y0172716D01*
X0023241Y0172785D01*
X0023155Y0172857D01*
X0023072Y0172933D01*
X0022991Y0173011D01*
X0022914Y0173092D01*
X0022839Y0173176D01*
X0022767Y0173262D01*
X0022699Y0173351D01*
X0022633Y0173443D01*
X0022571Y0173536D01*
X0022513Y0173632D01*
X0022458Y0173729D01*
X0022406Y0173829D01*
X0022358Y0173930D01*
X0022313Y0174033D01*
X0022272Y0174138D01*
X0022235Y0174244D01*
X0022202Y0174351D01*
X0022172Y0174459D01*
X0022146Y0174569D01*
X0022125Y0174679D01*
X0022107Y0174790D01*
X0022093Y0174901D01*
X0022083Y0175013D01*
X0022077Y0175125D01*
X0022075Y0175237D01*
X0022075Y0185237D02*
X0022077Y0185349D01*
X0022083Y0185461D01*
X0022093Y0185573D01*
X0022107Y0185684D01*
X0022125Y0185795D01*
X0022146Y0185905D01*
X0022172Y0186015D01*
X0022202Y0186123D01*
X0022235Y0186230D01*
X0022272Y0186336D01*
X0022313Y0186441D01*
X0022358Y0186544D01*
X0022406Y0186645D01*
X0022458Y0186745D01*
X0022513Y0186842D01*
X0022571Y0186938D01*
X0022633Y0187031D01*
X0022699Y0187123D01*
X0022767Y0187212D01*
X0022839Y0187298D01*
X0022914Y0187382D01*
X0022991Y0187463D01*
X0023072Y0187541D01*
X0023155Y0187617D01*
X0023241Y0187689D01*
X0023329Y0187758D01*
X0023420Y0187824D01*
X0023512Y0187887D01*
X0023608Y0187947D01*
X0023705Y0188003D01*
X0023804Y0188056D01*
X0023905Y0188105D01*
X0024008Y0188150D01*
X0024112Y0188192D01*
X0024217Y0188230D01*
X0024324Y0188264D01*
X0024432Y0188295D01*
X0024541Y0188321D01*
X0024651Y0188344D01*
X0024762Y0188363D01*
X0024873Y0188378D01*
X0024985Y0188389D01*
X0025097Y0188396D01*
X0025209Y0188399D01*
X0025321Y0188398D01*
X0025433Y0188393D01*
X0025545Y0188384D01*
X0025657Y0188371D01*
X0025768Y0188354D01*
X0025878Y0188333D01*
X0025987Y0188309D01*
X0026096Y0188280D01*
X0026203Y0188248D01*
X0026310Y0188211D01*
X0026415Y0188172D01*
X0026518Y0188128D01*
X0026620Y0188081D01*
X0026720Y0188030D01*
X0026818Y0187975D01*
X0026914Y0187918D01*
X0027008Y0187856D01*
X0027100Y0187792D01*
X0027190Y0187724D01*
X0027277Y0187653D01*
X0027361Y0187579D01*
X0027443Y0187502D01*
X0027522Y0187423D01*
X0027598Y0187340D01*
X0027671Y0187255D01*
X0027741Y0187167D01*
X0027808Y0187077D01*
X0027872Y0186985D01*
X0027932Y0186890D01*
X0027989Y0186794D01*
X0028043Y0186695D01*
X0028093Y0186594D01*
X0028139Y0186492D01*
X0028182Y0186388D01*
X0028221Y0186283D01*
X0028256Y0186177D01*
X0028288Y0186069D01*
X0028315Y0185960D01*
X0028339Y0185850D01*
X0028359Y0185740D01*
X0028375Y0185629D01*
X0028387Y0185517D01*
X0028395Y0185405D01*
X0028399Y0185293D01*
X0028399Y0185181D01*
X0028395Y0185069D01*
X0028387Y0184957D01*
X0028375Y0184845D01*
X0028359Y0184734D01*
X0028339Y0184624D01*
X0028315Y0184514D01*
X0028288Y0184405D01*
X0028256Y0184297D01*
X0028221Y0184191D01*
X0028182Y0184086D01*
X0028139Y0183982D01*
X0028093Y0183880D01*
X0028043Y0183779D01*
X0027989Y0183680D01*
X0027932Y0183584D01*
X0027872Y0183489D01*
X0027808Y0183397D01*
X0027741Y0183307D01*
X0027671Y0183219D01*
X0027598Y0183134D01*
X0027522Y0183051D01*
X0027443Y0182972D01*
X0027361Y0182895D01*
X0027277Y0182821D01*
X0027190Y0182750D01*
X0027100Y0182682D01*
X0027008Y0182618D01*
X0026914Y0182556D01*
X0026818Y0182499D01*
X0026720Y0182444D01*
X0026620Y0182393D01*
X0026518Y0182346D01*
X0026415Y0182302D01*
X0026310Y0182263D01*
X0026203Y0182226D01*
X0026096Y0182194D01*
X0025987Y0182165D01*
X0025878Y0182141D01*
X0025768Y0182120D01*
X0025657Y0182103D01*
X0025545Y0182090D01*
X0025433Y0182081D01*
X0025321Y0182076D01*
X0025209Y0182075D01*
X0025097Y0182078D01*
X0024985Y0182085D01*
X0024873Y0182096D01*
X0024762Y0182111D01*
X0024651Y0182130D01*
X0024541Y0182153D01*
X0024432Y0182179D01*
X0024324Y0182210D01*
X0024217Y0182244D01*
X0024112Y0182282D01*
X0024008Y0182324D01*
X0023905Y0182369D01*
X0023804Y0182418D01*
X0023705Y0182471D01*
X0023608Y0182527D01*
X0023512Y0182587D01*
X0023420Y0182650D01*
X0023329Y0182716D01*
X0023241Y0182785D01*
X0023155Y0182857D01*
X0023072Y0182933D01*
X0022991Y0183011D01*
X0022914Y0183092D01*
X0022839Y0183176D01*
X0022767Y0183262D01*
X0022699Y0183351D01*
X0022633Y0183443D01*
X0022571Y0183536D01*
X0022513Y0183632D01*
X0022458Y0183729D01*
X0022406Y0183829D01*
X0022358Y0183930D01*
X0022313Y0184033D01*
X0022272Y0184138D01*
X0022235Y0184244D01*
X0022202Y0184351D01*
X0022172Y0184459D01*
X0022146Y0184569D01*
X0022125Y0184679D01*
X0022107Y0184790D01*
X0022093Y0184901D01*
X0022083Y0185013D01*
X0022077Y0185125D01*
X0022075Y0185237D01*
X0022075Y0195237D02*
X0022077Y0195349D01*
X0022083Y0195461D01*
X0022093Y0195573D01*
X0022107Y0195684D01*
X0022125Y0195795D01*
X0022146Y0195905D01*
X0022172Y0196015D01*
X0022202Y0196123D01*
X0022235Y0196230D01*
X0022272Y0196336D01*
X0022313Y0196441D01*
X0022358Y0196544D01*
X0022406Y0196645D01*
X0022458Y0196745D01*
X0022513Y0196842D01*
X0022571Y0196938D01*
X0022633Y0197031D01*
X0022699Y0197123D01*
X0022767Y0197212D01*
X0022839Y0197298D01*
X0022914Y0197382D01*
X0022991Y0197463D01*
X0023072Y0197541D01*
X0023155Y0197617D01*
X0023241Y0197689D01*
X0023329Y0197758D01*
X0023420Y0197824D01*
X0023512Y0197887D01*
X0023608Y0197947D01*
X0023705Y0198003D01*
X0023804Y0198056D01*
X0023905Y0198105D01*
X0024008Y0198150D01*
X0024112Y0198192D01*
X0024217Y0198230D01*
X0024324Y0198264D01*
X0024432Y0198295D01*
X0024541Y0198321D01*
X0024651Y0198344D01*
X0024762Y0198363D01*
X0024873Y0198378D01*
X0024985Y0198389D01*
X0025097Y0198396D01*
X0025209Y0198399D01*
X0025321Y0198398D01*
X0025433Y0198393D01*
X0025545Y0198384D01*
X0025657Y0198371D01*
X0025768Y0198354D01*
X0025878Y0198333D01*
X0025987Y0198309D01*
X0026096Y0198280D01*
X0026203Y0198248D01*
X0026310Y0198211D01*
X0026415Y0198172D01*
X0026518Y0198128D01*
X0026620Y0198081D01*
X0026720Y0198030D01*
X0026818Y0197975D01*
X0026914Y0197918D01*
X0027008Y0197856D01*
X0027100Y0197792D01*
X0027190Y0197724D01*
X0027277Y0197653D01*
X0027361Y0197579D01*
X0027443Y0197502D01*
X0027522Y0197423D01*
X0027598Y0197340D01*
X0027671Y0197255D01*
X0027741Y0197167D01*
X0027808Y0197077D01*
X0027872Y0196985D01*
X0027932Y0196890D01*
X0027989Y0196794D01*
X0028043Y0196695D01*
X0028093Y0196594D01*
X0028139Y0196492D01*
X0028182Y0196388D01*
X0028221Y0196283D01*
X0028256Y0196177D01*
X0028288Y0196069D01*
X0028315Y0195960D01*
X0028339Y0195850D01*
X0028359Y0195740D01*
X0028375Y0195629D01*
X0028387Y0195517D01*
X0028395Y0195405D01*
X0028399Y0195293D01*
X0028399Y0195181D01*
X0028395Y0195069D01*
X0028387Y0194957D01*
X0028375Y0194845D01*
X0028359Y0194734D01*
X0028339Y0194624D01*
X0028315Y0194514D01*
X0028288Y0194405D01*
X0028256Y0194297D01*
X0028221Y0194191D01*
X0028182Y0194086D01*
X0028139Y0193982D01*
X0028093Y0193880D01*
X0028043Y0193779D01*
X0027989Y0193680D01*
X0027932Y0193584D01*
X0027872Y0193489D01*
X0027808Y0193397D01*
X0027741Y0193307D01*
X0027671Y0193219D01*
X0027598Y0193134D01*
X0027522Y0193051D01*
X0027443Y0192972D01*
X0027361Y0192895D01*
X0027277Y0192821D01*
X0027190Y0192750D01*
X0027100Y0192682D01*
X0027008Y0192618D01*
X0026914Y0192556D01*
X0026818Y0192499D01*
X0026720Y0192444D01*
X0026620Y0192393D01*
X0026518Y0192346D01*
X0026415Y0192302D01*
X0026310Y0192263D01*
X0026203Y0192226D01*
X0026096Y0192194D01*
X0025987Y0192165D01*
X0025878Y0192141D01*
X0025768Y0192120D01*
X0025657Y0192103D01*
X0025545Y0192090D01*
X0025433Y0192081D01*
X0025321Y0192076D01*
X0025209Y0192075D01*
X0025097Y0192078D01*
X0024985Y0192085D01*
X0024873Y0192096D01*
X0024762Y0192111D01*
X0024651Y0192130D01*
X0024541Y0192153D01*
X0024432Y0192179D01*
X0024324Y0192210D01*
X0024217Y0192244D01*
X0024112Y0192282D01*
X0024008Y0192324D01*
X0023905Y0192369D01*
X0023804Y0192418D01*
X0023705Y0192471D01*
X0023608Y0192527D01*
X0023512Y0192587D01*
X0023420Y0192650D01*
X0023329Y0192716D01*
X0023241Y0192785D01*
X0023155Y0192857D01*
X0023072Y0192933D01*
X0022991Y0193011D01*
X0022914Y0193092D01*
X0022839Y0193176D01*
X0022767Y0193262D01*
X0022699Y0193351D01*
X0022633Y0193443D01*
X0022571Y0193536D01*
X0022513Y0193632D01*
X0022458Y0193729D01*
X0022406Y0193829D01*
X0022358Y0193930D01*
X0022313Y0194033D01*
X0022272Y0194138D01*
X0022235Y0194244D01*
X0022202Y0194351D01*
X0022172Y0194459D01*
X0022146Y0194569D01*
X0022125Y0194679D01*
X0022107Y0194790D01*
X0022093Y0194901D01*
X0022083Y0195013D01*
X0022077Y0195125D01*
X0022075Y0195237D01*
X0022075Y0205237D02*
X0022077Y0205349D01*
X0022083Y0205461D01*
X0022093Y0205573D01*
X0022107Y0205684D01*
X0022125Y0205795D01*
X0022146Y0205905D01*
X0022172Y0206015D01*
X0022202Y0206123D01*
X0022235Y0206230D01*
X0022272Y0206336D01*
X0022313Y0206441D01*
X0022358Y0206544D01*
X0022406Y0206645D01*
X0022458Y0206745D01*
X0022513Y0206842D01*
X0022571Y0206938D01*
X0022633Y0207031D01*
X0022699Y0207123D01*
X0022767Y0207212D01*
X0022839Y0207298D01*
X0022914Y0207382D01*
X0022991Y0207463D01*
X0023072Y0207541D01*
X0023155Y0207617D01*
X0023241Y0207689D01*
X0023329Y0207758D01*
X0023420Y0207824D01*
X0023512Y0207887D01*
X0023608Y0207947D01*
X0023705Y0208003D01*
X0023804Y0208056D01*
X0023905Y0208105D01*
X0024008Y0208150D01*
X0024112Y0208192D01*
X0024217Y0208230D01*
X0024324Y0208264D01*
X0024432Y0208295D01*
X0024541Y0208321D01*
X0024651Y0208344D01*
X0024762Y0208363D01*
X0024873Y0208378D01*
X0024985Y0208389D01*
X0025097Y0208396D01*
X0025209Y0208399D01*
X0025321Y0208398D01*
X0025433Y0208393D01*
X0025545Y0208384D01*
X0025657Y0208371D01*
X0025768Y0208354D01*
X0025878Y0208333D01*
X0025987Y0208309D01*
X0026096Y0208280D01*
X0026203Y0208248D01*
X0026310Y0208211D01*
X0026415Y0208172D01*
X0026518Y0208128D01*
X0026620Y0208081D01*
X0026720Y0208030D01*
X0026818Y0207975D01*
X0026914Y0207918D01*
X0027008Y0207856D01*
X0027100Y0207792D01*
X0027190Y0207724D01*
X0027277Y0207653D01*
X0027361Y0207579D01*
X0027443Y0207502D01*
X0027522Y0207423D01*
X0027598Y0207340D01*
X0027671Y0207255D01*
X0027741Y0207167D01*
X0027808Y0207077D01*
X0027872Y0206985D01*
X0027932Y0206890D01*
X0027989Y0206794D01*
X0028043Y0206695D01*
X0028093Y0206594D01*
X0028139Y0206492D01*
X0028182Y0206388D01*
X0028221Y0206283D01*
X0028256Y0206177D01*
X0028288Y0206069D01*
X0028315Y0205960D01*
X0028339Y0205850D01*
X0028359Y0205740D01*
X0028375Y0205629D01*
X0028387Y0205517D01*
X0028395Y0205405D01*
X0028399Y0205293D01*
X0028399Y0205181D01*
X0028395Y0205069D01*
X0028387Y0204957D01*
X0028375Y0204845D01*
X0028359Y0204734D01*
X0028339Y0204624D01*
X0028315Y0204514D01*
X0028288Y0204405D01*
X0028256Y0204297D01*
X0028221Y0204191D01*
X0028182Y0204086D01*
X0028139Y0203982D01*
X0028093Y0203880D01*
X0028043Y0203779D01*
X0027989Y0203680D01*
X0027932Y0203584D01*
X0027872Y0203489D01*
X0027808Y0203397D01*
X0027741Y0203307D01*
X0027671Y0203219D01*
X0027598Y0203134D01*
X0027522Y0203051D01*
X0027443Y0202972D01*
X0027361Y0202895D01*
X0027277Y0202821D01*
X0027190Y0202750D01*
X0027100Y0202682D01*
X0027008Y0202618D01*
X0026914Y0202556D01*
X0026818Y0202499D01*
X0026720Y0202444D01*
X0026620Y0202393D01*
X0026518Y0202346D01*
X0026415Y0202302D01*
X0026310Y0202263D01*
X0026203Y0202226D01*
X0026096Y0202194D01*
X0025987Y0202165D01*
X0025878Y0202141D01*
X0025768Y0202120D01*
X0025657Y0202103D01*
X0025545Y0202090D01*
X0025433Y0202081D01*
X0025321Y0202076D01*
X0025209Y0202075D01*
X0025097Y0202078D01*
X0024985Y0202085D01*
X0024873Y0202096D01*
X0024762Y0202111D01*
X0024651Y0202130D01*
X0024541Y0202153D01*
X0024432Y0202179D01*
X0024324Y0202210D01*
X0024217Y0202244D01*
X0024112Y0202282D01*
X0024008Y0202324D01*
X0023905Y0202369D01*
X0023804Y0202418D01*
X0023705Y0202471D01*
X0023608Y0202527D01*
X0023512Y0202587D01*
X0023420Y0202650D01*
X0023329Y0202716D01*
X0023241Y0202785D01*
X0023155Y0202857D01*
X0023072Y0202933D01*
X0022991Y0203011D01*
X0022914Y0203092D01*
X0022839Y0203176D01*
X0022767Y0203262D01*
X0022699Y0203351D01*
X0022633Y0203443D01*
X0022571Y0203536D01*
X0022513Y0203632D01*
X0022458Y0203729D01*
X0022406Y0203829D01*
X0022358Y0203930D01*
X0022313Y0204033D01*
X0022272Y0204138D01*
X0022235Y0204244D01*
X0022202Y0204351D01*
X0022172Y0204459D01*
X0022146Y0204569D01*
X0022125Y0204679D01*
X0022107Y0204790D01*
X0022093Y0204901D01*
X0022083Y0205013D01*
X0022077Y0205125D01*
X0022075Y0205237D01*
X0022075Y0215237D02*
X0022077Y0215349D01*
X0022083Y0215461D01*
X0022093Y0215573D01*
X0022107Y0215684D01*
X0022125Y0215795D01*
X0022146Y0215905D01*
X0022172Y0216015D01*
X0022202Y0216123D01*
X0022235Y0216230D01*
X0022272Y0216336D01*
X0022313Y0216441D01*
X0022358Y0216544D01*
X0022406Y0216645D01*
X0022458Y0216745D01*
X0022513Y0216842D01*
X0022571Y0216938D01*
X0022633Y0217031D01*
X0022699Y0217123D01*
X0022767Y0217212D01*
X0022839Y0217298D01*
X0022914Y0217382D01*
X0022991Y0217463D01*
X0023072Y0217541D01*
X0023155Y0217617D01*
X0023241Y0217689D01*
X0023329Y0217758D01*
X0023420Y0217824D01*
X0023512Y0217887D01*
X0023608Y0217947D01*
X0023705Y0218003D01*
X0023804Y0218056D01*
X0023905Y0218105D01*
X0024008Y0218150D01*
X0024112Y0218192D01*
X0024217Y0218230D01*
X0024324Y0218264D01*
X0024432Y0218295D01*
X0024541Y0218321D01*
X0024651Y0218344D01*
X0024762Y0218363D01*
X0024873Y0218378D01*
X0024985Y0218389D01*
X0025097Y0218396D01*
X0025209Y0218399D01*
X0025321Y0218398D01*
X0025433Y0218393D01*
X0025545Y0218384D01*
X0025657Y0218371D01*
X0025768Y0218354D01*
X0025878Y0218333D01*
X0025987Y0218309D01*
X0026096Y0218280D01*
X0026203Y0218248D01*
X0026310Y0218211D01*
X0026415Y0218172D01*
X0026518Y0218128D01*
X0026620Y0218081D01*
X0026720Y0218030D01*
X0026818Y0217975D01*
X0026914Y0217918D01*
X0027008Y0217856D01*
X0027100Y0217792D01*
X0027190Y0217724D01*
X0027277Y0217653D01*
X0027361Y0217579D01*
X0027443Y0217502D01*
X0027522Y0217423D01*
X0027598Y0217340D01*
X0027671Y0217255D01*
X0027741Y0217167D01*
X0027808Y0217077D01*
X0027872Y0216985D01*
X0027932Y0216890D01*
X0027989Y0216794D01*
X0028043Y0216695D01*
X0028093Y0216594D01*
X0028139Y0216492D01*
X0028182Y0216388D01*
X0028221Y0216283D01*
X0028256Y0216177D01*
X0028288Y0216069D01*
X0028315Y0215960D01*
X0028339Y0215850D01*
X0028359Y0215740D01*
X0028375Y0215629D01*
X0028387Y0215517D01*
X0028395Y0215405D01*
X0028399Y0215293D01*
X0028399Y0215181D01*
X0028395Y0215069D01*
X0028387Y0214957D01*
X0028375Y0214845D01*
X0028359Y0214734D01*
X0028339Y0214624D01*
X0028315Y0214514D01*
X0028288Y0214405D01*
X0028256Y0214297D01*
X0028221Y0214191D01*
X0028182Y0214086D01*
X0028139Y0213982D01*
X0028093Y0213880D01*
X0028043Y0213779D01*
X0027989Y0213680D01*
X0027932Y0213584D01*
X0027872Y0213489D01*
X0027808Y0213397D01*
X0027741Y0213307D01*
X0027671Y0213219D01*
X0027598Y0213134D01*
X0027522Y0213051D01*
X0027443Y0212972D01*
X0027361Y0212895D01*
X0027277Y0212821D01*
X0027190Y0212750D01*
X0027100Y0212682D01*
X0027008Y0212618D01*
X0026914Y0212556D01*
X0026818Y0212499D01*
X0026720Y0212444D01*
X0026620Y0212393D01*
X0026518Y0212346D01*
X0026415Y0212302D01*
X0026310Y0212263D01*
X0026203Y0212226D01*
X0026096Y0212194D01*
X0025987Y0212165D01*
X0025878Y0212141D01*
X0025768Y0212120D01*
X0025657Y0212103D01*
X0025545Y0212090D01*
X0025433Y0212081D01*
X0025321Y0212076D01*
X0025209Y0212075D01*
X0025097Y0212078D01*
X0024985Y0212085D01*
X0024873Y0212096D01*
X0024762Y0212111D01*
X0024651Y0212130D01*
X0024541Y0212153D01*
X0024432Y0212179D01*
X0024324Y0212210D01*
X0024217Y0212244D01*
X0024112Y0212282D01*
X0024008Y0212324D01*
X0023905Y0212369D01*
X0023804Y0212418D01*
X0023705Y0212471D01*
X0023608Y0212527D01*
X0023512Y0212587D01*
X0023420Y0212650D01*
X0023329Y0212716D01*
X0023241Y0212785D01*
X0023155Y0212857D01*
X0023072Y0212933D01*
X0022991Y0213011D01*
X0022914Y0213092D01*
X0022839Y0213176D01*
X0022767Y0213262D01*
X0022699Y0213351D01*
X0022633Y0213443D01*
X0022571Y0213536D01*
X0022513Y0213632D01*
X0022458Y0213729D01*
X0022406Y0213829D01*
X0022358Y0213930D01*
X0022313Y0214033D01*
X0022272Y0214138D01*
X0022235Y0214244D01*
X0022202Y0214351D01*
X0022172Y0214459D01*
X0022146Y0214569D01*
X0022125Y0214679D01*
X0022107Y0214790D01*
X0022093Y0214901D01*
X0022083Y0215013D01*
X0022077Y0215125D01*
X0022075Y0215237D01*
X0022075Y0225237D02*
X0022077Y0225349D01*
X0022083Y0225461D01*
X0022093Y0225573D01*
X0022107Y0225684D01*
X0022125Y0225795D01*
X0022146Y0225905D01*
X0022172Y0226015D01*
X0022202Y0226123D01*
X0022235Y0226230D01*
X0022272Y0226336D01*
X0022313Y0226441D01*
X0022358Y0226544D01*
X0022406Y0226645D01*
X0022458Y0226745D01*
X0022513Y0226842D01*
X0022571Y0226938D01*
X0022633Y0227031D01*
X0022699Y0227123D01*
X0022767Y0227212D01*
X0022839Y0227298D01*
X0022914Y0227382D01*
X0022991Y0227463D01*
X0023072Y0227541D01*
X0023155Y0227617D01*
X0023241Y0227689D01*
X0023329Y0227758D01*
X0023420Y0227824D01*
X0023512Y0227887D01*
X0023608Y0227947D01*
X0023705Y0228003D01*
X0023804Y0228056D01*
X0023905Y0228105D01*
X0024008Y0228150D01*
X0024112Y0228192D01*
X0024217Y0228230D01*
X0024324Y0228264D01*
X0024432Y0228295D01*
X0024541Y0228321D01*
X0024651Y0228344D01*
X0024762Y0228363D01*
X0024873Y0228378D01*
X0024985Y0228389D01*
X0025097Y0228396D01*
X0025209Y0228399D01*
X0025321Y0228398D01*
X0025433Y0228393D01*
X0025545Y0228384D01*
X0025657Y0228371D01*
X0025768Y0228354D01*
X0025878Y0228333D01*
X0025987Y0228309D01*
X0026096Y0228280D01*
X0026203Y0228248D01*
X0026310Y0228211D01*
X0026415Y0228172D01*
X0026518Y0228128D01*
X0026620Y0228081D01*
X0026720Y0228030D01*
X0026818Y0227975D01*
X0026914Y0227918D01*
X0027008Y0227856D01*
X0027100Y0227792D01*
X0027190Y0227724D01*
X0027277Y0227653D01*
X0027361Y0227579D01*
X0027443Y0227502D01*
X0027522Y0227423D01*
X0027598Y0227340D01*
X0027671Y0227255D01*
X0027741Y0227167D01*
X0027808Y0227077D01*
X0027872Y0226985D01*
X0027932Y0226890D01*
X0027989Y0226794D01*
X0028043Y0226695D01*
X0028093Y0226594D01*
X0028139Y0226492D01*
X0028182Y0226388D01*
X0028221Y0226283D01*
X0028256Y0226177D01*
X0028288Y0226069D01*
X0028315Y0225960D01*
X0028339Y0225850D01*
X0028359Y0225740D01*
X0028375Y0225629D01*
X0028387Y0225517D01*
X0028395Y0225405D01*
X0028399Y0225293D01*
X0028399Y0225181D01*
X0028395Y0225069D01*
X0028387Y0224957D01*
X0028375Y0224845D01*
X0028359Y0224734D01*
X0028339Y0224624D01*
X0028315Y0224514D01*
X0028288Y0224405D01*
X0028256Y0224297D01*
X0028221Y0224191D01*
X0028182Y0224086D01*
X0028139Y0223982D01*
X0028093Y0223880D01*
X0028043Y0223779D01*
X0027989Y0223680D01*
X0027932Y0223584D01*
X0027872Y0223489D01*
X0027808Y0223397D01*
X0027741Y0223307D01*
X0027671Y0223219D01*
X0027598Y0223134D01*
X0027522Y0223051D01*
X0027443Y0222972D01*
X0027361Y0222895D01*
X0027277Y0222821D01*
X0027190Y0222750D01*
X0027100Y0222682D01*
X0027008Y0222618D01*
X0026914Y0222556D01*
X0026818Y0222499D01*
X0026720Y0222444D01*
X0026620Y0222393D01*
X0026518Y0222346D01*
X0026415Y0222302D01*
X0026310Y0222263D01*
X0026203Y0222226D01*
X0026096Y0222194D01*
X0025987Y0222165D01*
X0025878Y0222141D01*
X0025768Y0222120D01*
X0025657Y0222103D01*
X0025545Y0222090D01*
X0025433Y0222081D01*
X0025321Y0222076D01*
X0025209Y0222075D01*
X0025097Y0222078D01*
X0024985Y0222085D01*
X0024873Y0222096D01*
X0024762Y0222111D01*
X0024651Y0222130D01*
X0024541Y0222153D01*
X0024432Y0222179D01*
X0024324Y0222210D01*
X0024217Y0222244D01*
X0024112Y0222282D01*
X0024008Y0222324D01*
X0023905Y0222369D01*
X0023804Y0222418D01*
X0023705Y0222471D01*
X0023608Y0222527D01*
X0023512Y0222587D01*
X0023420Y0222650D01*
X0023329Y0222716D01*
X0023241Y0222785D01*
X0023155Y0222857D01*
X0023072Y0222933D01*
X0022991Y0223011D01*
X0022914Y0223092D01*
X0022839Y0223176D01*
X0022767Y0223262D01*
X0022699Y0223351D01*
X0022633Y0223443D01*
X0022571Y0223536D01*
X0022513Y0223632D01*
X0022458Y0223729D01*
X0022406Y0223829D01*
X0022358Y0223930D01*
X0022313Y0224033D01*
X0022272Y0224138D01*
X0022235Y0224244D01*
X0022202Y0224351D01*
X0022172Y0224459D01*
X0022146Y0224569D01*
X0022125Y0224679D01*
X0022107Y0224790D01*
X0022093Y0224901D01*
X0022083Y0225013D01*
X0022077Y0225125D01*
X0022075Y0225237D01*
X0022075Y0235237D02*
X0022077Y0235349D01*
X0022083Y0235461D01*
X0022093Y0235573D01*
X0022107Y0235684D01*
X0022125Y0235795D01*
X0022146Y0235905D01*
X0022172Y0236015D01*
X0022202Y0236123D01*
X0022235Y0236230D01*
X0022272Y0236336D01*
X0022313Y0236441D01*
X0022358Y0236544D01*
X0022406Y0236645D01*
X0022458Y0236745D01*
X0022513Y0236842D01*
X0022571Y0236938D01*
X0022633Y0237031D01*
X0022699Y0237123D01*
X0022767Y0237212D01*
X0022839Y0237298D01*
X0022914Y0237382D01*
X0022991Y0237463D01*
X0023072Y0237541D01*
X0023155Y0237617D01*
X0023241Y0237689D01*
X0023329Y0237758D01*
X0023420Y0237824D01*
X0023512Y0237887D01*
X0023608Y0237947D01*
X0023705Y0238003D01*
X0023804Y0238056D01*
X0023905Y0238105D01*
X0024008Y0238150D01*
X0024112Y0238192D01*
X0024217Y0238230D01*
X0024324Y0238264D01*
X0024432Y0238295D01*
X0024541Y0238321D01*
X0024651Y0238344D01*
X0024762Y0238363D01*
X0024873Y0238378D01*
X0024985Y0238389D01*
X0025097Y0238396D01*
X0025209Y0238399D01*
X0025321Y0238398D01*
X0025433Y0238393D01*
X0025545Y0238384D01*
X0025657Y0238371D01*
X0025768Y0238354D01*
X0025878Y0238333D01*
X0025987Y0238309D01*
X0026096Y0238280D01*
X0026203Y0238248D01*
X0026310Y0238211D01*
X0026415Y0238172D01*
X0026518Y0238128D01*
X0026620Y0238081D01*
X0026720Y0238030D01*
X0026818Y0237975D01*
X0026914Y0237918D01*
X0027008Y0237856D01*
X0027100Y0237792D01*
X0027190Y0237724D01*
X0027277Y0237653D01*
X0027361Y0237579D01*
X0027443Y0237502D01*
X0027522Y0237423D01*
X0027598Y0237340D01*
X0027671Y0237255D01*
X0027741Y0237167D01*
X0027808Y0237077D01*
X0027872Y0236985D01*
X0027932Y0236890D01*
X0027989Y0236794D01*
X0028043Y0236695D01*
X0028093Y0236594D01*
X0028139Y0236492D01*
X0028182Y0236388D01*
X0028221Y0236283D01*
X0028256Y0236177D01*
X0028288Y0236069D01*
X0028315Y0235960D01*
X0028339Y0235850D01*
X0028359Y0235740D01*
X0028375Y0235629D01*
X0028387Y0235517D01*
X0028395Y0235405D01*
X0028399Y0235293D01*
X0028399Y0235181D01*
X0028395Y0235069D01*
X0028387Y0234957D01*
X0028375Y0234845D01*
X0028359Y0234734D01*
X0028339Y0234624D01*
X0028315Y0234514D01*
X0028288Y0234405D01*
X0028256Y0234297D01*
X0028221Y0234191D01*
X0028182Y0234086D01*
X0028139Y0233982D01*
X0028093Y0233880D01*
X0028043Y0233779D01*
X0027989Y0233680D01*
X0027932Y0233584D01*
X0027872Y0233489D01*
X0027808Y0233397D01*
X0027741Y0233307D01*
X0027671Y0233219D01*
X0027598Y0233134D01*
X0027522Y0233051D01*
X0027443Y0232972D01*
X0027361Y0232895D01*
X0027277Y0232821D01*
X0027190Y0232750D01*
X0027100Y0232682D01*
X0027008Y0232618D01*
X0026914Y0232556D01*
X0026818Y0232499D01*
X0026720Y0232444D01*
X0026620Y0232393D01*
X0026518Y0232346D01*
X0026415Y0232302D01*
X0026310Y0232263D01*
X0026203Y0232226D01*
X0026096Y0232194D01*
X0025987Y0232165D01*
X0025878Y0232141D01*
X0025768Y0232120D01*
X0025657Y0232103D01*
X0025545Y0232090D01*
X0025433Y0232081D01*
X0025321Y0232076D01*
X0025209Y0232075D01*
X0025097Y0232078D01*
X0024985Y0232085D01*
X0024873Y0232096D01*
X0024762Y0232111D01*
X0024651Y0232130D01*
X0024541Y0232153D01*
X0024432Y0232179D01*
X0024324Y0232210D01*
X0024217Y0232244D01*
X0024112Y0232282D01*
X0024008Y0232324D01*
X0023905Y0232369D01*
X0023804Y0232418D01*
X0023705Y0232471D01*
X0023608Y0232527D01*
X0023512Y0232587D01*
X0023420Y0232650D01*
X0023329Y0232716D01*
X0023241Y0232785D01*
X0023155Y0232857D01*
X0023072Y0232933D01*
X0022991Y0233011D01*
X0022914Y0233092D01*
X0022839Y0233176D01*
X0022767Y0233262D01*
X0022699Y0233351D01*
X0022633Y0233443D01*
X0022571Y0233536D01*
X0022513Y0233632D01*
X0022458Y0233729D01*
X0022406Y0233829D01*
X0022358Y0233930D01*
X0022313Y0234033D01*
X0022272Y0234138D01*
X0022235Y0234244D01*
X0022202Y0234351D01*
X0022172Y0234459D01*
X0022146Y0234569D01*
X0022125Y0234679D01*
X0022107Y0234790D01*
X0022093Y0234901D01*
X0022083Y0235013D01*
X0022077Y0235125D01*
X0022075Y0235237D01*
X0022075Y0335237D02*
X0022077Y0335349D01*
X0022083Y0335461D01*
X0022093Y0335573D01*
X0022107Y0335684D01*
X0022125Y0335795D01*
X0022146Y0335905D01*
X0022172Y0336015D01*
X0022202Y0336123D01*
X0022235Y0336230D01*
X0022272Y0336336D01*
X0022313Y0336441D01*
X0022358Y0336544D01*
X0022406Y0336645D01*
X0022458Y0336745D01*
X0022513Y0336842D01*
X0022571Y0336938D01*
X0022633Y0337031D01*
X0022699Y0337123D01*
X0022767Y0337212D01*
X0022839Y0337298D01*
X0022914Y0337382D01*
X0022991Y0337463D01*
X0023072Y0337541D01*
X0023155Y0337617D01*
X0023241Y0337689D01*
X0023329Y0337758D01*
X0023420Y0337824D01*
X0023512Y0337887D01*
X0023608Y0337947D01*
X0023705Y0338003D01*
X0023804Y0338056D01*
X0023905Y0338105D01*
X0024008Y0338150D01*
X0024112Y0338192D01*
X0024217Y0338230D01*
X0024324Y0338264D01*
X0024432Y0338295D01*
X0024541Y0338321D01*
X0024651Y0338344D01*
X0024762Y0338363D01*
X0024873Y0338378D01*
X0024985Y0338389D01*
X0025097Y0338396D01*
X0025209Y0338399D01*
X0025321Y0338398D01*
X0025433Y0338393D01*
X0025545Y0338384D01*
X0025657Y0338371D01*
X0025768Y0338354D01*
X0025878Y0338333D01*
X0025987Y0338309D01*
X0026096Y0338280D01*
X0026203Y0338248D01*
X0026310Y0338211D01*
X0026415Y0338172D01*
X0026518Y0338128D01*
X0026620Y0338081D01*
X0026720Y0338030D01*
X0026818Y0337975D01*
X0026914Y0337918D01*
X0027008Y0337856D01*
X0027100Y0337792D01*
X0027190Y0337724D01*
X0027277Y0337653D01*
X0027361Y0337579D01*
X0027443Y0337502D01*
X0027522Y0337423D01*
X0027598Y0337340D01*
X0027671Y0337255D01*
X0027741Y0337167D01*
X0027808Y0337077D01*
X0027872Y0336985D01*
X0027932Y0336890D01*
X0027989Y0336794D01*
X0028043Y0336695D01*
X0028093Y0336594D01*
X0028139Y0336492D01*
X0028182Y0336388D01*
X0028221Y0336283D01*
X0028256Y0336177D01*
X0028288Y0336069D01*
X0028315Y0335960D01*
X0028339Y0335850D01*
X0028359Y0335740D01*
X0028375Y0335629D01*
X0028387Y0335517D01*
X0028395Y0335405D01*
X0028399Y0335293D01*
X0028399Y0335181D01*
X0028395Y0335069D01*
X0028387Y0334957D01*
X0028375Y0334845D01*
X0028359Y0334734D01*
X0028339Y0334624D01*
X0028315Y0334514D01*
X0028288Y0334405D01*
X0028256Y0334297D01*
X0028221Y0334191D01*
X0028182Y0334086D01*
X0028139Y0333982D01*
X0028093Y0333880D01*
X0028043Y0333779D01*
X0027989Y0333680D01*
X0027932Y0333584D01*
X0027872Y0333489D01*
X0027808Y0333397D01*
X0027741Y0333307D01*
X0027671Y0333219D01*
X0027598Y0333134D01*
X0027522Y0333051D01*
X0027443Y0332972D01*
X0027361Y0332895D01*
X0027277Y0332821D01*
X0027190Y0332750D01*
X0027100Y0332682D01*
X0027008Y0332618D01*
X0026914Y0332556D01*
X0026818Y0332499D01*
X0026720Y0332444D01*
X0026620Y0332393D01*
X0026518Y0332346D01*
X0026415Y0332302D01*
X0026310Y0332263D01*
X0026203Y0332226D01*
X0026096Y0332194D01*
X0025987Y0332165D01*
X0025878Y0332141D01*
X0025768Y0332120D01*
X0025657Y0332103D01*
X0025545Y0332090D01*
X0025433Y0332081D01*
X0025321Y0332076D01*
X0025209Y0332075D01*
X0025097Y0332078D01*
X0024985Y0332085D01*
X0024873Y0332096D01*
X0024762Y0332111D01*
X0024651Y0332130D01*
X0024541Y0332153D01*
X0024432Y0332179D01*
X0024324Y0332210D01*
X0024217Y0332244D01*
X0024112Y0332282D01*
X0024008Y0332324D01*
X0023905Y0332369D01*
X0023804Y0332418D01*
X0023705Y0332471D01*
X0023608Y0332527D01*
X0023512Y0332587D01*
X0023420Y0332650D01*
X0023329Y0332716D01*
X0023241Y0332785D01*
X0023155Y0332857D01*
X0023072Y0332933D01*
X0022991Y0333011D01*
X0022914Y0333092D01*
X0022839Y0333176D01*
X0022767Y0333262D01*
X0022699Y0333351D01*
X0022633Y0333443D01*
X0022571Y0333536D01*
X0022513Y0333632D01*
X0022458Y0333729D01*
X0022406Y0333829D01*
X0022358Y0333930D01*
X0022313Y0334033D01*
X0022272Y0334138D01*
X0022235Y0334244D01*
X0022202Y0334351D01*
X0022172Y0334459D01*
X0022146Y0334569D01*
X0022125Y0334679D01*
X0022107Y0334790D01*
X0022093Y0334901D01*
X0022083Y0335013D01*
X0022077Y0335125D01*
X0022075Y0335237D01*
X0022075Y0345237D02*
X0022077Y0345349D01*
X0022083Y0345461D01*
X0022093Y0345573D01*
X0022107Y0345684D01*
X0022125Y0345795D01*
X0022146Y0345905D01*
X0022172Y0346015D01*
X0022202Y0346123D01*
X0022235Y0346230D01*
X0022272Y0346336D01*
X0022313Y0346441D01*
X0022358Y0346544D01*
X0022406Y0346645D01*
X0022458Y0346745D01*
X0022513Y0346842D01*
X0022571Y0346938D01*
X0022633Y0347031D01*
X0022699Y0347123D01*
X0022767Y0347212D01*
X0022839Y0347298D01*
X0022914Y0347382D01*
X0022991Y0347463D01*
X0023072Y0347541D01*
X0023155Y0347617D01*
X0023241Y0347689D01*
X0023329Y0347758D01*
X0023420Y0347824D01*
X0023512Y0347887D01*
X0023608Y0347947D01*
X0023705Y0348003D01*
X0023804Y0348056D01*
X0023905Y0348105D01*
X0024008Y0348150D01*
X0024112Y0348192D01*
X0024217Y0348230D01*
X0024324Y0348264D01*
X0024432Y0348295D01*
X0024541Y0348321D01*
X0024651Y0348344D01*
X0024762Y0348363D01*
X0024873Y0348378D01*
X0024985Y0348389D01*
X0025097Y0348396D01*
X0025209Y0348399D01*
X0025321Y0348398D01*
X0025433Y0348393D01*
X0025545Y0348384D01*
X0025657Y0348371D01*
X0025768Y0348354D01*
X0025878Y0348333D01*
X0025987Y0348309D01*
X0026096Y0348280D01*
X0026203Y0348248D01*
X0026310Y0348211D01*
X0026415Y0348172D01*
X0026518Y0348128D01*
X0026620Y0348081D01*
X0026720Y0348030D01*
X0026818Y0347975D01*
X0026914Y0347918D01*
X0027008Y0347856D01*
X0027100Y0347792D01*
X0027190Y0347724D01*
X0027277Y0347653D01*
X0027361Y0347579D01*
X0027443Y0347502D01*
X0027522Y0347423D01*
X0027598Y0347340D01*
X0027671Y0347255D01*
X0027741Y0347167D01*
X0027808Y0347077D01*
X0027872Y0346985D01*
X0027932Y0346890D01*
X0027989Y0346794D01*
X0028043Y0346695D01*
X0028093Y0346594D01*
X0028139Y0346492D01*
X0028182Y0346388D01*
X0028221Y0346283D01*
X0028256Y0346177D01*
X0028288Y0346069D01*
X0028315Y0345960D01*
X0028339Y0345850D01*
X0028359Y0345740D01*
X0028375Y0345629D01*
X0028387Y0345517D01*
X0028395Y0345405D01*
X0028399Y0345293D01*
X0028399Y0345181D01*
X0028395Y0345069D01*
X0028387Y0344957D01*
X0028375Y0344845D01*
X0028359Y0344734D01*
X0028339Y0344624D01*
X0028315Y0344514D01*
X0028288Y0344405D01*
X0028256Y0344297D01*
X0028221Y0344191D01*
X0028182Y0344086D01*
X0028139Y0343982D01*
X0028093Y0343880D01*
X0028043Y0343779D01*
X0027989Y0343680D01*
X0027932Y0343584D01*
X0027872Y0343489D01*
X0027808Y0343397D01*
X0027741Y0343307D01*
X0027671Y0343219D01*
X0027598Y0343134D01*
X0027522Y0343051D01*
X0027443Y0342972D01*
X0027361Y0342895D01*
X0027277Y0342821D01*
X0027190Y0342750D01*
X0027100Y0342682D01*
X0027008Y0342618D01*
X0026914Y0342556D01*
X0026818Y0342499D01*
X0026720Y0342444D01*
X0026620Y0342393D01*
X0026518Y0342346D01*
X0026415Y0342302D01*
X0026310Y0342263D01*
X0026203Y0342226D01*
X0026096Y0342194D01*
X0025987Y0342165D01*
X0025878Y0342141D01*
X0025768Y0342120D01*
X0025657Y0342103D01*
X0025545Y0342090D01*
X0025433Y0342081D01*
X0025321Y0342076D01*
X0025209Y0342075D01*
X0025097Y0342078D01*
X0024985Y0342085D01*
X0024873Y0342096D01*
X0024762Y0342111D01*
X0024651Y0342130D01*
X0024541Y0342153D01*
X0024432Y0342179D01*
X0024324Y0342210D01*
X0024217Y0342244D01*
X0024112Y0342282D01*
X0024008Y0342324D01*
X0023905Y0342369D01*
X0023804Y0342418D01*
X0023705Y0342471D01*
X0023608Y0342527D01*
X0023512Y0342587D01*
X0023420Y0342650D01*
X0023329Y0342716D01*
X0023241Y0342785D01*
X0023155Y0342857D01*
X0023072Y0342933D01*
X0022991Y0343011D01*
X0022914Y0343092D01*
X0022839Y0343176D01*
X0022767Y0343262D01*
X0022699Y0343351D01*
X0022633Y0343443D01*
X0022571Y0343536D01*
X0022513Y0343632D01*
X0022458Y0343729D01*
X0022406Y0343829D01*
X0022358Y0343930D01*
X0022313Y0344033D01*
X0022272Y0344138D01*
X0022235Y0344244D01*
X0022202Y0344351D01*
X0022172Y0344459D01*
X0022146Y0344569D01*
X0022125Y0344679D01*
X0022107Y0344790D01*
X0022093Y0344901D01*
X0022083Y0345013D01*
X0022077Y0345125D01*
X0022075Y0345237D01*
X0025237Y0345237D02*
X0055237Y0345237D01*
X0055237Y0365237D02*
X0035237Y0365237D01*
X0025237Y0355237D01*
X0022075Y0355237D02*
X0022077Y0355349D01*
X0022083Y0355461D01*
X0022093Y0355573D01*
X0022107Y0355684D01*
X0022125Y0355795D01*
X0022146Y0355905D01*
X0022172Y0356015D01*
X0022202Y0356123D01*
X0022235Y0356230D01*
X0022272Y0356336D01*
X0022313Y0356441D01*
X0022358Y0356544D01*
X0022406Y0356645D01*
X0022458Y0356745D01*
X0022513Y0356842D01*
X0022571Y0356938D01*
X0022633Y0357031D01*
X0022699Y0357123D01*
X0022767Y0357212D01*
X0022839Y0357298D01*
X0022914Y0357382D01*
X0022991Y0357463D01*
X0023072Y0357541D01*
X0023155Y0357617D01*
X0023241Y0357689D01*
X0023329Y0357758D01*
X0023420Y0357824D01*
X0023512Y0357887D01*
X0023608Y0357947D01*
X0023705Y0358003D01*
X0023804Y0358056D01*
X0023905Y0358105D01*
X0024008Y0358150D01*
X0024112Y0358192D01*
X0024217Y0358230D01*
X0024324Y0358264D01*
X0024432Y0358295D01*
X0024541Y0358321D01*
X0024651Y0358344D01*
X0024762Y0358363D01*
X0024873Y0358378D01*
X0024985Y0358389D01*
X0025097Y0358396D01*
X0025209Y0358399D01*
X0025321Y0358398D01*
X0025433Y0358393D01*
X0025545Y0358384D01*
X0025657Y0358371D01*
X0025768Y0358354D01*
X0025878Y0358333D01*
X0025987Y0358309D01*
X0026096Y0358280D01*
X0026203Y0358248D01*
X0026310Y0358211D01*
X0026415Y0358172D01*
X0026518Y0358128D01*
X0026620Y0358081D01*
X0026720Y0358030D01*
X0026818Y0357975D01*
X0026914Y0357918D01*
X0027008Y0357856D01*
X0027100Y0357792D01*
X0027190Y0357724D01*
X0027277Y0357653D01*
X0027361Y0357579D01*
X0027443Y0357502D01*
X0027522Y0357423D01*
X0027598Y0357340D01*
X0027671Y0357255D01*
X0027741Y0357167D01*
X0027808Y0357077D01*
X0027872Y0356985D01*
X0027932Y0356890D01*
X0027989Y0356794D01*
X0028043Y0356695D01*
X0028093Y0356594D01*
X0028139Y0356492D01*
X0028182Y0356388D01*
X0028221Y0356283D01*
X0028256Y0356177D01*
X0028288Y0356069D01*
X0028315Y0355960D01*
X0028339Y0355850D01*
X0028359Y0355740D01*
X0028375Y0355629D01*
X0028387Y0355517D01*
X0028395Y0355405D01*
X0028399Y0355293D01*
X0028399Y0355181D01*
X0028395Y0355069D01*
X0028387Y0354957D01*
X0028375Y0354845D01*
X0028359Y0354734D01*
X0028339Y0354624D01*
X0028315Y0354514D01*
X0028288Y0354405D01*
X0028256Y0354297D01*
X0028221Y0354191D01*
X0028182Y0354086D01*
X0028139Y0353982D01*
X0028093Y0353880D01*
X0028043Y0353779D01*
X0027989Y0353680D01*
X0027932Y0353584D01*
X0027872Y0353489D01*
X0027808Y0353397D01*
X0027741Y0353307D01*
X0027671Y0353219D01*
X0027598Y0353134D01*
X0027522Y0353051D01*
X0027443Y0352972D01*
X0027361Y0352895D01*
X0027277Y0352821D01*
X0027190Y0352750D01*
X0027100Y0352682D01*
X0027008Y0352618D01*
X0026914Y0352556D01*
X0026818Y0352499D01*
X0026720Y0352444D01*
X0026620Y0352393D01*
X0026518Y0352346D01*
X0026415Y0352302D01*
X0026310Y0352263D01*
X0026203Y0352226D01*
X0026096Y0352194D01*
X0025987Y0352165D01*
X0025878Y0352141D01*
X0025768Y0352120D01*
X0025657Y0352103D01*
X0025545Y0352090D01*
X0025433Y0352081D01*
X0025321Y0352076D01*
X0025209Y0352075D01*
X0025097Y0352078D01*
X0024985Y0352085D01*
X0024873Y0352096D01*
X0024762Y0352111D01*
X0024651Y0352130D01*
X0024541Y0352153D01*
X0024432Y0352179D01*
X0024324Y0352210D01*
X0024217Y0352244D01*
X0024112Y0352282D01*
X0024008Y0352324D01*
X0023905Y0352369D01*
X0023804Y0352418D01*
X0023705Y0352471D01*
X0023608Y0352527D01*
X0023512Y0352587D01*
X0023420Y0352650D01*
X0023329Y0352716D01*
X0023241Y0352785D01*
X0023155Y0352857D01*
X0023072Y0352933D01*
X0022991Y0353011D01*
X0022914Y0353092D01*
X0022839Y0353176D01*
X0022767Y0353262D01*
X0022699Y0353351D01*
X0022633Y0353443D01*
X0022571Y0353536D01*
X0022513Y0353632D01*
X0022458Y0353729D01*
X0022406Y0353829D01*
X0022358Y0353930D01*
X0022313Y0354033D01*
X0022272Y0354138D01*
X0022235Y0354244D01*
X0022202Y0354351D01*
X0022172Y0354459D01*
X0022146Y0354569D01*
X0022125Y0354679D01*
X0022107Y0354790D01*
X0022093Y0354901D01*
X0022083Y0355013D01*
X0022077Y0355125D01*
X0022075Y0355237D01*
X0062075Y0385237D02*
X0062077Y0385349D01*
X0062083Y0385461D01*
X0062093Y0385573D01*
X0062107Y0385684D01*
X0062125Y0385795D01*
X0062146Y0385905D01*
X0062172Y0386015D01*
X0062202Y0386123D01*
X0062235Y0386230D01*
X0062272Y0386336D01*
X0062313Y0386441D01*
X0062358Y0386544D01*
X0062406Y0386645D01*
X0062458Y0386745D01*
X0062513Y0386842D01*
X0062571Y0386938D01*
X0062633Y0387031D01*
X0062699Y0387123D01*
X0062767Y0387212D01*
X0062839Y0387298D01*
X0062914Y0387382D01*
X0062991Y0387463D01*
X0063072Y0387541D01*
X0063155Y0387617D01*
X0063241Y0387689D01*
X0063329Y0387758D01*
X0063420Y0387824D01*
X0063512Y0387887D01*
X0063608Y0387947D01*
X0063705Y0388003D01*
X0063804Y0388056D01*
X0063905Y0388105D01*
X0064008Y0388150D01*
X0064112Y0388192D01*
X0064217Y0388230D01*
X0064324Y0388264D01*
X0064432Y0388295D01*
X0064541Y0388321D01*
X0064651Y0388344D01*
X0064762Y0388363D01*
X0064873Y0388378D01*
X0064985Y0388389D01*
X0065097Y0388396D01*
X0065209Y0388399D01*
X0065321Y0388398D01*
X0065433Y0388393D01*
X0065545Y0388384D01*
X0065657Y0388371D01*
X0065768Y0388354D01*
X0065878Y0388333D01*
X0065987Y0388309D01*
X0066096Y0388280D01*
X0066203Y0388248D01*
X0066310Y0388211D01*
X0066415Y0388172D01*
X0066518Y0388128D01*
X0066620Y0388081D01*
X0066720Y0388030D01*
X0066818Y0387975D01*
X0066914Y0387918D01*
X0067008Y0387856D01*
X0067100Y0387792D01*
X0067190Y0387724D01*
X0067277Y0387653D01*
X0067361Y0387579D01*
X0067443Y0387502D01*
X0067522Y0387423D01*
X0067598Y0387340D01*
X0067671Y0387255D01*
X0067741Y0387167D01*
X0067808Y0387077D01*
X0067872Y0386985D01*
X0067932Y0386890D01*
X0067989Y0386794D01*
X0068043Y0386695D01*
X0068093Y0386594D01*
X0068139Y0386492D01*
X0068182Y0386388D01*
X0068221Y0386283D01*
X0068256Y0386177D01*
X0068288Y0386069D01*
X0068315Y0385960D01*
X0068339Y0385850D01*
X0068359Y0385740D01*
X0068375Y0385629D01*
X0068387Y0385517D01*
X0068395Y0385405D01*
X0068399Y0385293D01*
X0068399Y0385181D01*
X0068395Y0385069D01*
X0068387Y0384957D01*
X0068375Y0384845D01*
X0068359Y0384734D01*
X0068339Y0384624D01*
X0068315Y0384514D01*
X0068288Y0384405D01*
X0068256Y0384297D01*
X0068221Y0384191D01*
X0068182Y0384086D01*
X0068139Y0383982D01*
X0068093Y0383880D01*
X0068043Y0383779D01*
X0067989Y0383680D01*
X0067932Y0383584D01*
X0067872Y0383489D01*
X0067808Y0383397D01*
X0067741Y0383307D01*
X0067671Y0383219D01*
X0067598Y0383134D01*
X0067522Y0383051D01*
X0067443Y0382972D01*
X0067361Y0382895D01*
X0067277Y0382821D01*
X0067190Y0382750D01*
X0067100Y0382682D01*
X0067008Y0382618D01*
X0066914Y0382556D01*
X0066818Y0382499D01*
X0066720Y0382444D01*
X0066620Y0382393D01*
X0066518Y0382346D01*
X0066415Y0382302D01*
X0066310Y0382263D01*
X0066203Y0382226D01*
X0066096Y0382194D01*
X0065987Y0382165D01*
X0065878Y0382141D01*
X0065768Y0382120D01*
X0065657Y0382103D01*
X0065545Y0382090D01*
X0065433Y0382081D01*
X0065321Y0382076D01*
X0065209Y0382075D01*
X0065097Y0382078D01*
X0064985Y0382085D01*
X0064873Y0382096D01*
X0064762Y0382111D01*
X0064651Y0382130D01*
X0064541Y0382153D01*
X0064432Y0382179D01*
X0064324Y0382210D01*
X0064217Y0382244D01*
X0064112Y0382282D01*
X0064008Y0382324D01*
X0063905Y0382369D01*
X0063804Y0382418D01*
X0063705Y0382471D01*
X0063608Y0382527D01*
X0063512Y0382587D01*
X0063420Y0382650D01*
X0063329Y0382716D01*
X0063241Y0382785D01*
X0063155Y0382857D01*
X0063072Y0382933D01*
X0062991Y0383011D01*
X0062914Y0383092D01*
X0062839Y0383176D01*
X0062767Y0383262D01*
X0062699Y0383351D01*
X0062633Y0383443D01*
X0062571Y0383536D01*
X0062513Y0383632D01*
X0062458Y0383729D01*
X0062406Y0383829D01*
X0062358Y0383930D01*
X0062313Y0384033D01*
X0062272Y0384138D01*
X0062235Y0384244D01*
X0062202Y0384351D01*
X0062172Y0384459D01*
X0062146Y0384569D01*
X0062125Y0384679D01*
X0062107Y0384790D01*
X0062093Y0384901D01*
X0062083Y0385013D01*
X0062077Y0385125D01*
X0062075Y0385237D01*
X0072075Y0385237D02*
X0072077Y0385349D01*
X0072083Y0385461D01*
X0072093Y0385573D01*
X0072107Y0385684D01*
X0072125Y0385795D01*
X0072146Y0385905D01*
X0072172Y0386015D01*
X0072202Y0386123D01*
X0072235Y0386230D01*
X0072272Y0386336D01*
X0072313Y0386441D01*
X0072358Y0386544D01*
X0072406Y0386645D01*
X0072458Y0386745D01*
X0072513Y0386842D01*
X0072571Y0386938D01*
X0072633Y0387031D01*
X0072699Y0387123D01*
X0072767Y0387212D01*
X0072839Y0387298D01*
X0072914Y0387382D01*
X0072991Y0387463D01*
X0073072Y0387541D01*
X0073155Y0387617D01*
X0073241Y0387689D01*
X0073329Y0387758D01*
X0073420Y0387824D01*
X0073512Y0387887D01*
X0073608Y0387947D01*
X0073705Y0388003D01*
X0073804Y0388056D01*
X0073905Y0388105D01*
X0074008Y0388150D01*
X0074112Y0388192D01*
X0074217Y0388230D01*
X0074324Y0388264D01*
X0074432Y0388295D01*
X0074541Y0388321D01*
X0074651Y0388344D01*
X0074762Y0388363D01*
X0074873Y0388378D01*
X0074985Y0388389D01*
X0075097Y0388396D01*
X0075209Y0388399D01*
X0075321Y0388398D01*
X0075433Y0388393D01*
X0075545Y0388384D01*
X0075657Y0388371D01*
X0075768Y0388354D01*
X0075878Y0388333D01*
X0075987Y0388309D01*
X0076096Y0388280D01*
X0076203Y0388248D01*
X0076310Y0388211D01*
X0076415Y0388172D01*
X0076518Y0388128D01*
X0076620Y0388081D01*
X0076720Y0388030D01*
X0076818Y0387975D01*
X0076914Y0387918D01*
X0077008Y0387856D01*
X0077100Y0387792D01*
X0077190Y0387724D01*
X0077277Y0387653D01*
X0077361Y0387579D01*
X0077443Y0387502D01*
X0077522Y0387423D01*
X0077598Y0387340D01*
X0077671Y0387255D01*
X0077741Y0387167D01*
X0077808Y0387077D01*
X0077872Y0386985D01*
X0077932Y0386890D01*
X0077989Y0386794D01*
X0078043Y0386695D01*
X0078093Y0386594D01*
X0078139Y0386492D01*
X0078182Y0386388D01*
X0078221Y0386283D01*
X0078256Y0386177D01*
X0078288Y0386069D01*
X0078315Y0385960D01*
X0078339Y0385850D01*
X0078359Y0385740D01*
X0078375Y0385629D01*
X0078387Y0385517D01*
X0078395Y0385405D01*
X0078399Y0385293D01*
X0078399Y0385181D01*
X0078395Y0385069D01*
X0078387Y0384957D01*
X0078375Y0384845D01*
X0078359Y0384734D01*
X0078339Y0384624D01*
X0078315Y0384514D01*
X0078288Y0384405D01*
X0078256Y0384297D01*
X0078221Y0384191D01*
X0078182Y0384086D01*
X0078139Y0383982D01*
X0078093Y0383880D01*
X0078043Y0383779D01*
X0077989Y0383680D01*
X0077932Y0383584D01*
X0077872Y0383489D01*
X0077808Y0383397D01*
X0077741Y0383307D01*
X0077671Y0383219D01*
X0077598Y0383134D01*
X0077522Y0383051D01*
X0077443Y0382972D01*
X0077361Y0382895D01*
X0077277Y0382821D01*
X0077190Y0382750D01*
X0077100Y0382682D01*
X0077008Y0382618D01*
X0076914Y0382556D01*
X0076818Y0382499D01*
X0076720Y0382444D01*
X0076620Y0382393D01*
X0076518Y0382346D01*
X0076415Y0382302D01*
X0076310Y0382263D01*
X0076203Y0382226D01*
X0076096Y0382194D01*
X0075987Y0382165D01*
X0075878Y0382141D01*
X0075768Y0382120D01*
X0075657Y0382103D01*
X0075545Y0382090D01*
X0075433Y0382081D01*
X0075321Y0382076D01*
X0075209Y0382075D01*
X0075097Y0382078D01*
X0074985Y0382085D01*
X0074873Y0382096D01*
X0074762Y0382111D01*
X0074651Y0382130D01*
X0074541Y0382153D01*
X0074432Y0382179D01*
X0074324Y0382210D01*
X0074217Y0382244D01*
X0074112Y0382282D01*
X0074008Y0382324D01*
X0073905Y0382369D01*
X0073804Y0382418D01*
X0073705Y0382471D01*
X0073608Y0382527D01*
X0073512Y0382587D01*
X0073420Y0382650D01*
X0073329Y0382716D01*
X0073241Y0382785D01*
X0073155Y0382857D01*
X0073072Y0382933D01*
X0072991Y0383011D01*
X0072914Y0383092D01*
X0072839Y0383176D01*
X0072767Y0383262D01*
X0072699Y0383351D01*
X0072633Y0383443D01*
X0072571Y0383536D01*
X0072513Y0383632D01*
X0072458Y0383729D01*
X0072406Y0383829D01*
X0072358Y0383930D01*
X0072313Y0384033D01*
X0072272Y0384138D01*
X0072235Y0384244D01*
X0072202Y0384351D01*
X0072172Y0384459D01*
X0072146Y0384569D01*
X0072125Y0384679D01*
X0072107Y0384790D01*
X0072093Y0384901D01*
X0072083Y0385013D01*
X0072077Y0385125D01*
X0072075Y0385237D01*
X0075237Y0385237D02*
X0095237Y0385237D01*
D11*
X0055237Y0385237D03*
D12*
X0042075Y0385237D02*
X0042077Y0385349D01*
X0042083Y0385461D01*
X0042093Y0385573D01*
X0042107Y0385684D01*
X0042125Y0385795D01*
X0042146Y0385905D01*
X0042172Y0386015D01*
X0042202Y0386123D01*
X0042235Y0386230D01*
X0042272Y0386336D01*
X0042313Y0386441D01*
X0042358Y0386544D01*
X0042406Y0386645D01*
X0042458Y0386745D01*
X0042513Y0386842D01*
X0042571Y0386938D01*
X0042633Y0387031D01*
X0042699Y0387123D01*
X0042767Y0387212D01*
X0042839Y0387298D01*
X0042914Y0387382D01*
X0042991Y0387463D01*
X0043072Y0387541D01*
X0043155Y0387617D01*
X0043241Y0387689D01*
X0043329Y0387758D01*
X0043420Y0387824D01*
X0043512Y0387887D01*
X0043608Y0387947D01*
X0043705Y0388003D01*
X0043804Y0388056D01*
X0043905Y0388105D01*
X0044008Y0388150D01*
X0044112Y0388192D01*
X0044217Y0388230D01*
X0044324Y0388264D01*
X0044432Y0388295D01*
X0044541Y0388321D01*
X0044651Y0388344D01*
X0044762Y0388363D01*
X0044873Y0388378D01*
X0044985Y0388389D01*
X0045097Y0388396D01*
X0045209Y0388399D01*
X0045321Y0388398D01*
X0045433Y0388393D01*
X0045545Y0388384D01*
X0045657Y0388371D01*
X0045768Y0388354D01*
X0045878Y0388333D01*
X0045987Y0388309D01*
X0046096Y0388280D01*
X0046203Y0388248D01*
X0046310Y0388211D01*
X0046415Y0388172D01*
X0046518Y0388128D01*
X0046620Y0388081D01*
X0046720Y0388030D01*
X0046818Y0387975D01*
X0046914Y0387918D01*
X0047008Y0387856D01*
X0047100Y0387792D01*
X0047190Y0387724D01*
X0047277Y0387653D01*
X0047361Y0387579D01*
X0047443Y0387502D01*
X0047522Y0387423D01*
X0047598Y0387340D01*
X0047671Y0387255D01*
X0047741Y0387167D01*
X0047808Y0387077D01*
X0047872Y0386985D01*
X0047932Y0386890D01*
X0047989Y0386794D01*
X0048043Y0386695D01*
X0048093Y0386594D01*
X0048139Y0386492D01*
X0048182Y0386388D01*
X0048221Y0386283D01*
X0048256Y0386177D01*
X0048288Y0386069D01*
X0048315Y0385960D01*
X0048339Y0385850D01*
X0048359Y0385740D01*
X0048375Y0385629D01*
X0048387Y0385517D01*
X0048395Y0385405D01*
X0048399Y0385293D01*
X0048399Y0385181D01*
X0048395Y0385069D01*
X0048387Y0384957D01*
X0048375Y0384845D01*
X0048359Y0384734D01*
X0048339Y0384624D01*
X0048315Y0384514D01*
X0048288Y0384405D01*
X0048256Y0384297D01*
X0048221Y0384191D01*
X0048182Y0384086D01*
X0048139Y0383982D01*
X0048093Y0383880D01*
X0048043Y0383779D01*
X0047989Y0383680D01*
X0047932Y0383584D01*
X0047872Y0383489D01*
X0047808Y0383397D01*
X0047741Y0383307D01*
X0047671Y0383219D01*
X0047598Y0383134D01*
X0047522Y0383051D01*
X0047443Y0382972D01*
X0047361Y0382895D01*
X0047277Y0382821D01*
X0047190Y0382750D01*
X0047100Y0382682D01*
X0047008Y0382618D01*
X0046914Y0382556D01*
X0046818Y0382499D01*
X0046720Y0382444D01*
X0046620Y0382393D01*
X0046518Y0382346D01*
X0046415Y0382302D01*
X0046310Y0382263D01*
X0046203Y0382226D01*
X0046096Y0382194D01*
X0045987Y0382165D01*
X0045878Y0382141D01*
X0045768Y0382120D01*
X0045657Y0382103D01*
X0045545Y0382090D01*
X0045433Y0382081D01*
X0045321Y0382076D01*
X0045209Y0382075D01*
X0045097Y0382078D01*
X0044985Y0382085D01*
X0044873Y0382096D01*
X0044762Y0382111D01*
X0044651Y0382130D01*
X0044541Y0382153D01*
X0044432Y0382179D01*
X0044324Y0382210D01*
X0044217Y0382244D01*
X0044112Y0382282D01*
X0044008Y0382324D01*
X0043905Y0382369D01*
X0043804Y0382418D01*
X0043705Y0382471D01*
X0043608Y0382527D01*
X0043512Y0382587D01*
X0043420Y0382650D01*
X0043329Y0382716D01*
X0043241Y0382785D01*
X0043155Y0382857D01*
X0043072Y0382933D01*
X0042991Y0383011D01*
X0042914Y0383092D01*
X0042839Y0383176D01*
X0042767Y0383262D01*
X0042699Y0383351D01*
X0042633Y0383443D01*
X0042571Y0383536D01*
X0042513Y0383632D01*
X0042458Y0383729D01*
X0042406Y0383829D01*
X0042358Y0383930D01*
X0042313Y0384033D01*
X0042272Y0384138D01*
X0042235Y0384244D01*
X0042202Y0384351D01*
X0042172Y0384459D01*
X0042146Y0384569D01*
X0042125Y0384679D01*
X0042107Y0384790D01*
X0042093Y0384901D01*
X0042083Y0385013D01*
X0042077Y0385125D01*
X0042075Y0385237D01*
X0052075Y0365237D02*
X0052077Y0365349D01*
X0052083Y0365461D01*
X0052093Y0365573D01*
X0052107Y0365684D01*
X0052125Y0365795D01*
X0052146Y0365905D01*
X0052172Y0366015D01*
X0052202Y0366123D01*
X0052235Y0366230D01*
X0052272Y0366336D01*
X0052313Y0366441D01*
X0052358Y0366544D01*
X0052406Y0366645D01*
X0052458Y0366745D01*
X0052513Y0366842D01*
X0052571Y0366938D01*
X0052633Y0367031D01*
X0052699Y0367123D01*
X0052767Y0367212D01*
X0052839Y0367298D01*
X0052914Y0367382D01*
X0052991Y0367463D01*
X0053072Y0367541D01*
X0053155Y0367617D01*
X0053241Y0367689D01*
X0053329Y0367758D01*
X0053420Y0367824D01*
X0053512Y0367887D01*
X0053608Y0367947D01*
X0053705Y0368003D01*
X0053804Y0368056D01*
X0053905Y0368105D01*
X0054008Y0368150D01*
X0054112Y0368192D01*
X0054217Y0368230D01*
X0054324Y0368264D01*
X0054432Y0368295D01*
X0054541Y0368321D01*
X0054651Y0368344D01*
X0054762Y0368363D01*
X0054873Y0368378D01*
X0054985Y0368389D01*
X0055097Y0368396D01*
X0055209Y0368399D01*
X0055321Y0368398D01*
X0055433Y0368393D01*
X0055545Y0368384D01*
X0055657Y0368371D01*
X0055768Y0368354D01*
X0055878Y0368333D01*
X0055987Y0368309D01*
X0056096Y0368280D01*
X0056203Y0368248D01*
X0056310Y0368211D01*
X0056415Y0368172D01*
X0056518Y0368128D01*
X0056620Y0368081D01*
X0056720Y0368030D01*
X0056818Y0367975D01*
X0056914Y0367918D01*
X0057008Y0367856D01*
X0057100Y0367792D01*
X0057190Y0367724D01*
X0057277Y0367653D01*
X0057361Y0367579D01*
X0057443Y0367502D01*
X0057522Y0367423D01*
X0057598Y0367340D01*
X0057671Y0367255D01*
X0057741Y0367167D01*
X0057808Y0367077D01*
X0057872Y0366985D01*
X0057932Y0366890D01*
X0057989Y0366794D01*
X0058043Y0366695D01*
X0058093Y0366594D01*
X0058139Y0366492D01*
X0058182Y0366388D01*
X0058221Y0366283D01*
X0058256Y0366177D01*
X0058288Y0366069D01*
X0058315Y0365960D01*
X0058339Y0365850D01*
X0058359Y0365740D01*
X0058375Y0365629D01*
X0058387Y0365517D01*
X0058395Y0365405D01*
X0058399Y0365293D01*
X0058399Y0365181D01*
X0058395Y0365069D01*
X0058387Y0364957D01*
X0058375Y0364845D01*
X0058359Y0364734D01*
X0058339Y0364624D01*
X0058315Y0364514D01*
X0058288Y0364405D01*
X0058256Y0364297D01*
X0058221Y0364191D01*
X0058182Y0364086D01*
X0058139Y0363982D01*
X0058093Y0363880D01*
X0058043Y0363779D01*
X0057989Y0363680D01*
X0057932Y0363584D01*
X0057872Y0363489D01*
X0057808Y0363397D01*
X0057741Y0363307D01*
X0057671Y0363219D01*
X0057598Y0363134D01*
X0057522Y0363051D01*
X0057443Y0362972D01*
X0057361Y0362895D01*
X0057277Y0362821D01*
X0057190Y0362750D01*
X0057100Y0362682D01*
X0057008Y0362618D01*
X0056914Y0362556D01*
X0056818Y0362499D01*
X0056720Y0362444D01*
X0056620Y0362393D01*
X0056518Y0362346D01*
X0056415Y0362302D01*
X0056310Y0362263D01*
X0056203Y0362226D01*
X0056096Y0362194D01*
X0055987Y0362165D01*
X0055878Y0362141D01*
X0055768Y0362120D01*
X0055657Y0362103D01*
X0055545Y0362090D01*
X0055433Y0362081D01*
X0055321Y0362076D01*
X0055209Y0362075D01*
X0055097Y0362078D01*
X0054985Y0362085D01*
X0054873Y0362096D01*
X0054762Y0362111D01*
X0054651Y0362130D01*
X0054541Y0362153D01*
X0054432Y0362179D01*
X0054324Y0362210D01*
X0054217Y0362244D01*
X0054112Y0362282D01*
X0054008Y0362324D01*
X0053905Y0362369D01*
X0053804Y0362418D01*
X0053705Y0362471D01*
X0053608Y0362527D01*
X0053512Y0362587D01*
X0053420Y0362650D01*
X0053329Y0362716D01*
X0053241Y0362785D01*
X0053155Y0362857D01*
X0053072Y0362933D01*
X0052991Y0363011D01*
X0052914Y0363092D01*
X0052839Y0363176D01*
X0052767Y0363262D01*
X0052699Y0363351D01*
X0052633Y0363443D01*
X0052571Y0363536D01*
X0052513Y0363632D01*
X0052458Y0363729D01*
X0052406Y0363829D01*
X0052358Y0363930D01*
X0052313Y0364033D01*
X0052272Y0364138D01*
X0052235Y0364244D01*
X0052202Y0364351D01*
X0052172Y0364459D01*
X0052146Y0364569D01*
X0052125Y0364679D01*
X0052107Y0364790D01*
X0052093Y0364901D01*
X0052083Y0365013D01*
X0052077Y0365125D01*
X0052075Y0365237D01*
X0052075Y0345237D02*
X0052077Y0345349D01*
X0052083Y0345461D01*
X0052093Y0345573D01*
X0052107Y0345684D01*
X0052125Y0345795D01*
X0052146Y0345905D01*
X0052172Y0346015D01*
X0052202Y0346123D01*
X0052235Y0346230D01*
X0052272Y0346336D01*
X0052313Y0346441D01*
X0052358Y0346544D01*
X0052406Y0346645D01*
X0052458Y0346745D01*
X0052513Y0346842D01*
X0052571Y0346938D01*
X0052633Y0347031D01*
X0052699Y0347123D01*
X0052767Y0347212D01*
X0052839Y0347298D01*
X0052914Y0347382D01*
X0052991Y0347463D01*
X0053072Y0347541D01*
X0053155Y0347617D01*
X0053241Y0347689D01*
X0053329Y0347758D01*
X0053420Y0347824D01*
X0053512Y0347887D01*
X0053608Y0347947D01*
X0053705Y0348003D01*
X0053804Y0348056D01*
X0053905Y0348105D01*
X0054008Y0348150D01*
X0054112Y0348192D01*
X0054217Y0348230D01*
X0054324Y0348264D01*
X0054432Y0348295D01*
X0054541Y0348321D01*
X0054651Y0348344D01*
X0054762Y0348363D01*
X0054873Y0348378D01*
X0054985Y0348389D01*
X0055097Y0348396D01*
X0055209Y0348399D01*
X0055321Y0348398D01*
X0055433Y0348393D01*
X0055545Y0348384D01*
X0055657Y0348371D01*
X0055768Y0348354D01*
X0055878Y0348333D01*
X0055987Y0348309D01*
X0056096Y0348280D01*
X0056203Y0348248D01*
X0056310Y0348211D01*
X0056415Y0348172D01*
X0056518Y0348128D01*
X0056620Y0348081D01*
X0056720Y0348030D01*
X0056818Y0347975D01*
X0056914Y0347918D01*
X0057008Y0347856D01*
X0057100Y0347792D01*
X0057190Y0347724D01*
X0057277Y0347653D01*
X0057361Y0347579D01*
X0057443Y0347502D01*
X0057522Y0347423D01*
X0057598Y0347340D01*
X0057671Y0347255D01*
X0057741Y0347167D01*
X0057808Y0347077D01*
X0057872Y0346985D01*
X0057932Y0346890D01*
X0057989Y0346794D01*
X0058043Y0346695D01*
X0058093Y0346594D01*
X0058139Y0346492D01*
X0058182Y0346388D01*
X0058221Y0346283D01*
X0058256Y0346177D01*
X0058288Y0346069D01*
X0058315Y0345960D01*
X0058339Y0345850D01*
X0058359Y0345740D01*
X0058375Y0345629D01*
X0058387Y0345517D01*
X0058395Y0345405D01*
X0058399Y0345293D01*
X0058399Y0345181D01*
X0058395Y0345069D01*
X0058387Y0344957D01*
X0058375Y0344845D01*
X0058359Y0344734D01*
X0058339Y0344624D01*
X0058315Y0344514D01*
X0058288Y0344405D01*
X0058256Y0344297D01*
X0058221Y0344191D01*
X0058182Y0344086D01*
X0058139Y0343982D01*
X0058093Y0343880D01*
X0058043Y0343779D01*
X0057989Y0343680D01*
X0057932Y0343584D01*
X0057872Y0343489D01*
X0057808Y0343397D01*
X0057741Y0343307D01*
X0057671Y0343219D01*
X0057598Y0343134D01*
X0057522Y0343051D01*
X0057443Y0342972D01*
X0057361Y0342895D01*
X0057277Y0342821D01*
X0057190Y0342750D01*
X0057100Y0342682D01*
X0057008Y0342618D01*
X0056914Y0342556D01*
X0056818Y0342499D01*
X0056720Y0342444D01*
X0056620Y0342393D01*
X0056518Y0342346D01*
X0056415Y0342302D01*
X0056310Y0342263D01*
X0056203Y0342226D01*
X0056096Y0342194D01*
X0055987Y0342165D01*
X0055878Y0342141D01*
X0055768Y0342120D01*
X0055657Y0342103D01*
X0055545Y0342090D01*
X0055433Y0342081D01*
X0055321Y0342076D01*
X0055209Y0342075D01*
X0055097Y0342078D01*
X0054985Y0342085D01*
X0054873Y0342096D01*
X0054762Y0342111D01*
X0054651Y0342130D01*
X0054541Y0342153D01*
X0054432Y0342179D01*
X0054324Y0342210D01*
X0054217Y0342244D01*
X0054112Y0342282D01*
X0054008Y0342324D01*
X0053905Y0342369D01*
X0053804Y0342418D01*
X0053705Y0342471D01*
X0053608Y0342527D01*
X0053512Y0342587D01*
X0053420Y0342650D01*
X0053329Y0342716D01*
X0053241Y0342785D01*
X0053155Y0342857D01*
X0053072Y0342933D01*
X0052991Y0343011D01*
X0052914Y0343092D01*
X0052839Y0343176D01*
X0052767Y0343262D01*
X0052699Y0343351D01*
X0052633Y0343443D01*
X0052571Y0343536D01*
X0052513Y0343632D01*
X0052458Y0343729D01*
X0052406Y0343829D01*
X0052358Y0343930D01*
X0052313Y0344033D01*
X0052272Y0344138D01*
X0052235Y0344244D01*
X0052202Y0344351D01*
X0052172Y0344459D01*
X0052146Y0344569D01*
X0052125Y0344679D01*
X0052107Y0344790D01*
X0052093Y0344901D01*
X0052083Y0345013D01*
X0052077Y0345125D01*
X0052075Y0345237D01*
X0012075Y0325237D02*
X0012077Y0325349D01*
X0012083Y0325461D01*
X0012093Y0325573D01*
X0012107Y0325684D01*
X0012125Y0325795D01*
X0012146Y0325905D01*
X0012172Y0326015D01*
X0012202Y0326123D01*
X0012235Y0326230D01*
X0012272Y0326336D01*
X0012313Y0326441D01*
X0012358Y0326544D01*
X0012406Y0326645D01*
X0012458Y0326745D01*
X0012513Y0326842D01*
X0012571Y0326938D01*
X0012633Y0327031D01*
X0012699Y0327123D01*
X0012767Y0327212D01*
X0012839Y0327298D01*
X0012914Y0327382D01*
X0012991Y0327463D01*
X0013072Y0327541D01*
X0013155Y0327617D01*
X0013241Y0327689D01*
X0013329Y0327758D01*
X0013420Y0327824D01*
X0013512Y0327887D01*
X0013608Y0327947D01*
X0013705Y0328003D01*
X0013804Y0328056D01*
X0013905Y0328105D01*
X0014008Y0328150D01*
X0014112Y0328192D01*
X0014217Y0328230D01*
X0014324Y0328264D01*
X0014432Y0328295D01*
X0014541Y0328321D01*
X0014651Y0328344D01*
X0014762Y0328363D01*
X0014873Y0328378D01*
X0014985Y0328389D01*
X0015097Y0328396D01*
X0015209Y0328399D01*
X0015321Y0328398D01*
X0015433Y0328393D01*
X0015545Y0328384D01*
X0015657Y0328371D01*
X0015768Y0328354D01*
X0015878Y0328333D01*
X0015987Y0328309D01*
X0016096Y0328280D01*
X0016203Y0328248D01*
X0016310Y0328211D01*
X0016415Y0328172D01*
X0016518Y0328128D01*
X0016620Y0328081D01*
X0016720Y0328030D01*
X0016818Y0327975D01*
X0016914Y0327918D01*
X0017008Y0327856D01*
X0017100Y0327792D01*
X0017190Y0327724D01*
X0017277Y0327653D01*
X0017361Y0327579D01*
X0017443Y0327502D01*
X0017522Y0327423D01*
X0017598Y0327340D01*
X0017671Y0327255D01*
X0017741Y0327167D01*
X0017808Y0327077D01*
X0017872Y0326985D01*
X0017932Y0326890D01*
X0017989Y0326794D01*
X0018043Y0326695D01*
X0018093Y0326594D01*
X0018139Y0326492D01*
X0018182Y0326388D01*
X0018221Y0326283D01*
X0018256Y0326177D01*
X0018288Y0326069D01*
X0018315Y0325960D01*
X0018339Y0325850D01*
X0018359Y0325740D01*
X0018375Y0325629D01*
X0018387Y0325517D01*
X0018395Y0325405D01*
X0018399Y0325293D01*
X0018399Y0325181D01*
X0018395Y0325069D01*
X0018387Y0324957D01*
X0018375Y0324845D01*
X0018359Y0324734D01*
X0018339Y0324624D01*
X0018315Y0324514D01*
X0018288Y0324405D01*
X0018256Y0324297D01*
X0018221Y0324191D01*
X0018182Y0324086D01*
X0018139Y0323982D01*
X0018093Y0323880D01*
X0018043Y0323779D01*
X0017989Y0323680D01*
X0017932Y0323584D01*
X0017872Y0323489D01*
X0017808Y0323397D01*
X0017741Y0323307D01*
X0017671Y0323219D01*
X0017598Y0323134D01*
X0017522Y0323051D01*
X0017443Y0322972D01*
X0017361Y0322895D01*
X0017277Y0322821D01*
X0017190Y0322750D01*
X0017100Y0322682D01*
X0017008Y0322618D01*
X0016914Y0322556D01*
X0016818Y0322499D01*
X0016720Y0322444D01*
X0016620Y0322393D01*
X0016518Y0322346D01*
X0016415Y0322302D01*
X0016310Y0322263D01*
X0016203Y0322226D01*
X0016096Y0322194D01*
X0015987Y0322165D01*
X0015878Y0322141D01*
X0015768Y0322120D01*
X0015657Y0322103D01*
X0015545Y0322090D01*
X0015433Y0322081D01*
X0015321Y0322076D01*
X0015209Y0322075D01*
X0015097Y0322078D01*
X0014985Y0322085D01*
X0014873Y0322096D01*
X0014762Y0322111D01*
X0014651Y0322130D01*
X0014541Y0322153D01*
X0014432Y0322179D01*
X0014324Y0322210D01*
X0014217Y0322244D01*
X0014112Y0322282D01*
X0014008Y0322324D01*
X0013905Y0322369D01*
X0013804Y0322418D01*
X0013705Y0322471D01*
X0013608Y0322527D01*
X0013512Y0322587D01*
X0013420Y0322650D01*
X0013329Y0322716D01*
X0013241Y0322785D01*
X0013155Y0322857D01*
X0013072Y0322933D01*
X0012991Y0323011D01*
X0012914Y0323092D01*
X0012839Y0323176D01*
X0012767Y0323262D01*
X0012699Y0323351D01*
X0012633Y0323443D01*
X0012571Y0323536D01*
X0012513Y0323632D01*
X0012458Y0323729D01*
X0012406Y0323829D01*
X0012358Y0323930D01*
X0012313Y0324033D01*
X0012272Y0324138D01*
X0012235Y0324244D01*
X0012202Y0324351D01*
X0012172Y0324459D01*
X0012146Y0324569D01*
X0012125Y0324679D01*
X0012107Y0324790D01*
X0012093Y0324901D01*
X0012083Y0325013D01*
X0012077Y0325125D01*
X0012075Y0325237D01*
X0092075Y0385237D02*
X0092077Y0385349D01*
X0092083Y0385461D01*
X0092093Y0385573D01*
X0092107Y0385684D01*
X0092125Y0385795D01*
X0092146Y0385905D01*
X0092172Y0386015D01*
X0092202Y0386123D01*
X0092235Y0386230D01*
X0092272Y0386336D01*
X0092313Y0386441D01*
X0092358Y0386544D01*
X0092406Y0386645D01*
X0092458Y0386745D01*
X0092513Y0386842D01*
X0092571Y0386938D01*
X0092633Y0387031D01*
X0092699Y0387123D01*
X0092767Y0387212D01*
X0092839Y0387298D01*
X0092914Y0387382D01*
X0092991Y0387463D01*
X0093072Y0387541D01*
X0093155Y0387617D01*
X0093241Y0387689D01*
X0093329Y0387758D01*
X0093420Y0387824D01*
X0093512Y0387887D01*
X0093608Y0387947D01*
X0093705Y0388003D01*
X0093804Y0388056D01*
X0093905Y0388105D01*
X0094008Y0388150D01*
X0094112Y0388192D01*
X0094217Y0388230D01*
X0094324Y0388264D01*
X0094432Y0388295D01*
X0094541Y0388321D01*
X0094651Y0388344D01*
X0094762Y0388363D01*
X0094873Y0388378D01*
X0094985Y0388389D01*
X0095097Y0388396D01*
X0095209Y0388399D01*
X0095321Y0388398D01*
X0095433Y0388393D01*
X0095545Y0388384D01*
X0095657Y0388371D01*
X0095768Y0388354D01*
X0095878Y0388333D01*
X0095987Y0388309D01*
X0096096Y0388280D01*
X0096203Y0388248D01*
X0096310Y0388211D01*
X0096415Y0388172D01*
X0096518Y0388128D01*
X0096620Y0388081D01*
X0096720Y0388030D01*
X0096818Y0387975D01*
X0096914Y0387918D01*
X0097008Y0387856D01*
X0097100Y0387792D01*
X0097190Y0387724D01*
X0097277Y0387653D01*
X0097361Y0387579D01*
X0097443Y0387502D01*
X0097522Y0387423D01*
X0097598Y0387340D01*
X0097671Y0387255D01*
X0097741Y0387167D01*
X0097808Y0387077D01*
X0097872Y0386985D01*
X0097932Y0386890D01*
X0097989Y0386794D01*
X0098043Y0386695D01*
X0098093Y0386594D01*
X0098139Y0386492D01*
X0098182Y0386388D01*
X0098221Y0386283D01*
X0098256Y0386177D01*
X0098288Y0386069D01*
X0098315Y0385960D01*
X0098339Y0385850D01*
X0098359Y0385740D01*
X0098375Y0385629D01*
X0098387Y0385517D01*
X0098395Y0385405D01*
X0098399Y0385293D01*
X0098399Y0385181D01*
X0098395Y0385069D01*
X0098387Y0384957D01*
X0098375Y0384845D01*
X0098359Y0384734D01*
X0098339Y0384624D01*
X0098315Y0384514D01*
X0098288Y0384405D01*
X0098256Y0384297D01*
X0098221Y0384191D01*
X0098182Y0384086D01*
X0098139Y0383982D01*
X0098093Y0383880D01*
X0098043Y0383779D01*
X0097989Y0383680D01*
X0097932Y0383584D01*
X0097872Y0383489D01*
X0097808Y0383397D01*
X0097741Y0383307D01*
X0097671Y0383219D01*
X0097598Y0383134D01*
X0097522Y0383051D01*
X0097443Y0382972D01*
X0097361Y0382895D01*
X0097277Y0382821D01*
X0097190Y0382750D01*
X0097100Y0382682D01*
X0097008Y0382618D01*
X0096914Y0382556D01*
X0096818Y0382499D01*
X0096720Y0382444D01*
X0096620Y0382393D01*
X0096518Y0382346D01*
X0096415Y0382302D01*
X0096310Y0382263D01*
X0096203Y0382226D01*
X0096096Y0382194D01*
X0095987Y0382165D01*
X0095878Y0382141D01*
X0095768Y0382120D01*
X0095657Y0382103D01*
X0095545Y0382090D01*
X0095433Y0382081D01*
X0095321Y0382076D01*
X0095209Y0382075D01*
X0095097Y0382078D01*
X0094985Y0382085D01*
X0094873Y0382096D01*
X0094762Y0382111D01*
X0094651Y0382130D01*
X0094541Y0382153D01*
X0094432Y0382179D01*
X0094324Y0382210D01*
X0094217Y0382244D01*
X0094112Y0382282D01*
X0094008Y0382324D01*
X0093905Y0382369D01*
X0093804Y0382418D01*
X0093705Y0382471D01*
X0093608Y0382527D01*
X0093512Y0382587D01*
X0093420Y0382650D01*
X0093329Y0382716D01*
X0093241Y0382785D01*
X0093155Y0382857D01*
X0093072Y0382933D01*
X0092991Y0383011D01*
X0092914Y0383092D01*
X0092839Y0383176D01*
X0092767Y0383262D01*
X0092699Y0383351D01*
X0092633Y0383443D01*
X0092571Y0383536D01*
X0092513Y0383632D01*
X0092458Y0383729D01*
X0092406Y0383829D01*
X0092358Y0383930D01*
X0092313Y0384033D01*
X0092272Y0384138D01*
X0092235Y0384244D01*
X0092202Y0384351D01*
X0092172Y0384459D01*
X0092146Y0384569D01*
X0092125Y0384679D01*
X0092107Y0384790D01*
X0092093Y0384901D01*
X0092083Y0385013D01*
X0092077Y0385125D01*
X0092075Y0385237D01*
D13*
X0063977Y0058229D03*
X0063977Y0078229D03*
X0103977Y0078229D03*
X0103977Y0058229D03*
X0142717Y0058229D03*
X0142717Y0078229D03*
X0182717Y0078229D03*
X0182717Y0058229D03*
X0221457Y0058229D03*
X0221457Y0078229D03*
X0261457Y0078229D03*
X0261457Y0058229D03*
X0300198Y0058229D03*
X0300198Y0078229D03*
X0340198Y0078229D03*
X0340198Y0058229D03*
X0340198Y0136969D03*
X0340198Y0156969D03*
X0300198Y0156969D03*
X0300198Y0136969D03*
X0261457Y0136969D03*
X0261457Y0156969D03*
X0221457Y0156969D03*
X0221457Y0136969D03*
X0182717Y0136969D03*
X0182717Y0156969D03*
X0142717Y0156969D03*
X0142717Y0136969D03*
X0103977Y0136969D03*
X0103977Y0156969D03*
X0063977Y0156969D03*
X0063977Y0136969D03*
X0063977Y0215709D03*
X0063977Y0235709D03*
X0103977Y0235709D03*
X0103977Y0215709D03*
X0142717Y0215709D03*
X0142717Y0235709D03*
X0182717Y0235709D03*
X0182717Y0215709D03*
X0221457Y0215709D03*
X0221457Y0235709D03*
X0261457Y0235709D03*
X0261457Y0215709D03*
X0300198Y0215709D03*
X0300198Y0235709D03*
X0340198Y0235709D03*
X0340198Y0215709D03*
X0340198Y0294450D03*
X0340198Y0314450D03*
X0300198Y0314450D03*
X0300198Y0294450D03*
X0261457Y0294450D03*
X0261457Y0314450D03*
X0221457Y0314450D03*
X0221457Y0294450D03*
X0182717Y0294450D03*
X0182717Y0314450D03*
X0142717Y0314450D03*
X0142717Y0294450D03*
X0103977Y0294450D03*
X0103977Y0314450D03*
X0063977Y0314450D03*
X0063977Y0294450D03*
D14*
X0025237Y0335237D02*
X0015237Y0325237D01*
X0045237Y0385237D02*
X0065237Y0385237D01*
D15*
X0045237Y0385237D03*
X0055237Y0365237D03*
X0055237Y0345237D03*
X0015237Y0325237D03*
X0095237Y0385237D03*
D16*
X0055237Y0335237D02*
X0279237Y0335237D01*
X0300237Y0314237D01*
X0300198Y0294450D02*
X0300198Y0235709D01*
X0300198Y0215709D02*
X0300198Y0156969D01*
X0300198Y0136969D02*
X0300198Y0078229D01*
X0267520Y0072166D02*
X0334135Y0072166D01*
X0340198Y0078229D01*
X0334135Y0150906D02*
X0267520Y0150906D01*
X0261457Y0156969D01*
X0255394Y0150906D01*
X0188780Y0150906D01*
X0182717Y0156969D01*
X0176654Y0150906D01*
X0110040Y0150906D01*
X0103977Y0156969D01*
X0104237Y0157237D02*
X0097237Y0150237D01*
X0060237Y0150237D01*
X0035237Y0175237D01*
X0025237Y0175237D01*
X0025237Y0185237D02*
X0076237Y0236237D01*
X0104237Y0236237D01*
X0103977Y0235709D02*
X0110040Y0229646D01*
X0176654Y0229646D01*
X0182717Y0235709D01*
X0188780Y0229646D01*
X0255394Y0229646D01*
X0261457Y0235709D01*
X0267520Y0229646D01*
X0334135Y0229646D01*
X0340198Y0235709D01*
X0334135Y0308387D02*
X0267520Y0308387D01*
X0261457Y0314450D01*
X0255394Y0308387D01*
X0188780Y0308387D01*
X0182717Y0314450D01*
X0176654Y0308387D01*
X0110040Y0308387D01*
X0103977Y0314450D01*
X0104237Y0314237D02*
X0095237Y0305237D01*
X0065237Y0305237D01*
X0035237Y0275237D01*
X0035237Y0205237D01*
X0025237Y0195237D01*
X0025237Y0205237D02*
X0010237Y0220237D01*
X0010237Y0290237D01*
X0055237Y0335237D01*
X0060237Y0330237D02*
X0206237Y0330237D01*
X0221237Y0315237D01*
X0221457Y0294450D02*
X0221457Y0235709D01*
X0221457Y0215709D02*
X0221457Y0156969D01*
X0221457Y0136969D02*
X0221457Y0078229D01*
X0188780Y0072166D02*
X0255394Y0072166D01*
X0261457Y0078229D01*
X0267520Y0072166D01*
X0188780Y0072166D02*
X0182717Y0078229D01*
X0176654Y0072166D01*
X0110040Y0072166D01*
X0103977Y0078229D01*
X0104237Y0078237D02*
X0096237Y0070237D01*
X0060237Y0070237D01*
X0055237Y0075237D01*
X0055237Y0145237D01*
X0035237Y0165237D01*
X0025237Y0165237D01*
X0063977Y0156969D02*
X0063977Y0215709D01*
X0063977Y0235709D02*
X0063977Y0294450D01*
X0063237Y0314237D02*
X0025237Y0276237D01*
X0025237Y0235237D01*
X0020237Y0230237D02*
X0020237Y0280237D01*
X0065237Y0325237D01*
X0132237Y0325237D01*
X0143237Y0314237D01*
X0142717Y0294450D02*
X0142717Y0235709D01*
X0142717Y0215709D02*
X0142717Y0156969D01*
X0142717Y0136969D02*
X0142717Y0078229D01*
X0063977Y0078229D02*
X0063977Y0136969D01*
X0025237Y0215237D02*
X0015237Y0225237D01*
X0015237Y0285237D01*
X0060237Y0330237D01*
X0020237Y0230237D02*
X0025237Y0225237D01*
X0334135Y0150906D02*
X0340198Y0156969D01*
X0334135Y0308387D02*
X0340198Y0314450D01*
M02*
