G75*
%MOIN*%
%OFA0B0*%
%FSLAX25Y25*%
%IPPOS*%
%LPD*%
%AMOC8*
5,1,8,0,0,1.08239X$1,22.5*
%
%ADD10C,0.05800*%
%ADD11C,0.07296*%
%ADD12C,0.03778*%
D10*
X0025237Y0165237D03*
X0025237Y0175237D03*
X0025237Y0185237D03*
X0025237Y0195237D03*
X0025237Y0205237D03*
X0025237Y0215237D03*
X0025237Y0225237D03*
X0025237Y0235237D03*
X0025237Y0335237D03*
X0025237Y0345237D03*
X0025237Y0355237D03*
X0065237Y0385237D03*
X0075237Y0385237D03*
D11*
X0063977Y0058229D03*
X0063977Y0078229D03*
X0103977Y0078229D03*
X0103977Y0058229D03*
X0142717Y0058229D03*
X0142717Y0078229D03*
X0182717Y0078229D03*
X0182717Y0058229D03*
X0221457Y0058229D03*
X0221457Y0078229D03*
X0261457Y0078229D03*
X0261457Y0058229D03*
X0300198Y0058229D03*
X0300198Y0078229D03*
X0340198Y0078229D03*
X0340198Y0058229D03*
X0340198Y0136969D03*
X0340198Y0156969D03*
X0300198Y0156969D03*
X0300198Y0136969D03*
X0261457Y0136969D03*
X0261457Y0156969D03*
X0221457Y0156969D03*
X0221457Y0136969D03*
X0182717Y0136969D03*
X0182717Y0156969D03*
X0142717Y0156969D03*
X0142717Y0136969D03*
X0103977Y0136969D03*
X0103977Y0156969D03*
X0063977Y0156969D03*
X0063977Y0136969D03*
X0063977Y0215709D03*
X0063977Y0235709D03*
X0103977Y0235709D03*
X0103977Y0215709D03*
X0142717Y0215709D03*
X0142717Y0235709D03*
X0182717Y0235709D03*
X0182717Y0215709D03*
X0221457Y0215709D03*
X0221457Y0235709D03*
X0261457Y0235709D03*
X0261457Y0215709D03*
X0300198Y0215709D03*
X0300198Y0235709D03*
X0340198Y0235709D03*
X0340198Y0215709D03*
X0340198Y0294450D03*
X0340198Y0314450D03*
X0300198Y0314450D03*
X0300198Y0294450D03*
X0261457Y0294450D03*
X0261457Y0314450D03*
X0221457Y0314450D03*
X0221457Y0294450D03*
X0182717Y0294450D03*
X0182717Y0314450D03*
X0142717Y0314450D03*
X0142717Y0294450D03*
X0103977Y0294450D03*
X0103977Y0314450D03*
X0063977Y0314450D03*
X0063977Y0294450D03*
D12*
X0015237Y0325237D03*
X0055237Y0345237D03*
X0055237Y0355237D03*
X0045237Y0385237D03*
X0095237Y0385237D03*
M02*
