G75*
%MOIN*%
%OFA0B0*%
%FSLAX25Y25*%
%IPPOS*%
%LPD*%
%AMOC8*
5,1,8,0,0,1.08239X$1,22.5*
%
%ADD10C,0.05800*%
%ADD11R,0.09855X0.05131*%
%ADD12C,0.07296*%
%ADD13C,0.03778*%
D10*
X0025237Y0165237D03*
X0025237Y0175237D03*
X0025237Y0185237D03*
X0025237Y0195237D03*
X0025237Y0205237D03*
X0025237Y0215237D03*
X0025237Y0225237D03*
X0025237Y0235237D03*
X0015237Y0325237D03*
X0025237Y0335237D03*
X0025237Y0345237D03*
X0025237Y0355237D03*
X0055237Y0345237D03*
X0055237Y0365237D03*
X0045237Y0385237D03*
X0065237Y0385237D03*
X0075237Y0385237D03*
X0095237Y0385237D03*
D11*
X0094804Y0337914D03*
X0094804Y0330631D03*
X0094804Y0323347D03*
X0073150Y0323544D03*
X0073150Y0330631D03*
X0073150Y0337914D03*
X0073150Y0259174D03*
X0073150Y0251891D03*
X0073150Y0244804D03*
X0094804Y0244607D03*
X0094804Y0251891D03*
X0094804Y0259174D03*
X0151891Y0259174D03*
X0151891Y0251891D03*
X0151891Y0244804D03*
X0173544Y0244607D03*
X0173544Y0251891D03*
X0173544Y0259174D03*
X0230631Y0259174D03*
X0230631Y0251891D03*
X0230631Y0244804D03*
X0252284Y0244607D03*
X0252284Y0251891D03*
X0252284Y0259174D03*
X0309371Y0259174D03*
X0309371Y0251891D03*
X0309371Y0244804D03*
X0331024Y0244607D03*
X0331024Y0251891D03*
X0331024Y0259174D03*
X0331024Y0323347D03*
X0331024Y0330631D03*
X0331024Y0337914D03*
X0309371Y0337914D03*
X0309371Y0330631D03*
X0309371Y0323544D03*
X0252284Y0323347D03*
X0252284Y0330631D03*
X0252284Y0337914D03*
X0230631Y0337914D03*
X0230631Y0330631D03*
X0230631Y0323544D03*
X0173544Y0323347D03*
X0173544Y0330631D03*
X0173544Y0337914D03*
X0151891Y0337914D03*
X0151891Y0330631D03*
X0151891Y0323544D03*
X0151891Y0180434D03*
X0151891Y0173150D03*
X0151891Y0166064D03*
X0173544Y0165867D03*
X0173544Y0173150D03*
X0173544Y0180434D03*
X0230631Y0180434D03*
X0230631Y0173150D03*
X0230631Y0166064D03*
X0252284Y0165867D03*
X0252284Y0173150D03*
X0252284Y0180434D03*
X0309371Y0180434D03*
X0309371Y0173150D03*
X0309371Y0166064D03*
X0331024Y0165867D03*
X0331024Y0173150D03*
X0331024Y0180434D03*
X0331024Y0101694D03*
X0331024Y0094410D03*
X0331024Y0087127D03*
X0309371Y0087324D03*
X0309371Y0094410D03*
X0309371Y0101694D03*
X0252284Y0101694D03*
X0252284Y0094410D03*
X0252284Y0087127D03*
X0230631Y0087324D03*
X0230631Y0094410D03*
X0230631Y0101694D03*
X0173544Y0101694D03*
X0173544Y0094410D03*
X0173544Y0087127D03*
X0151891Y0087324D03*
X0151891Y0094410D03*
X0151891Y0101694D03*
X0094804Y0101694D03*
X0094804Y0094410D03*
X0094804Y0087127D03*
X0073150Y0087324D03*
X0073150Y0094410D03*
X0073150Y0101694D03*
X0073150Y0166064D03*
X0073150Y0173150D03*
X0073150Y0180434D03*
X0094804Y0180434D03*
X0094804Y0173150D03*
X0094804Y0165867D03*
D12*
X0063977Y0058229D03*
X0063977Y0078229D03*
X0103977Y0078229D03*
X0103977Y0058229D03*
X0142717Y0058229D03*
X0142717Y0078229D03*
X0182717Y0078229D03*
X0182717Y0058229D03*
X0221457Y0058229D03*
X0221457Y0078229D03*
X0261457Y0078229D03*
X0261457Y0058229D03*
X0300198Y0058229D03*
X0300198Y0078229D03*
X0340198Y0078229D03*
X0340198Y0058229D03*
X0340198Y0136969D03*
X0340198Y0156969D03*
X0300198Y0156969D03*
X0300198Y0136969D03*
X0261457Y0136969D03*
X0261457Y0156969D03*
X0221457Y0156969D03*
X0221457Y0136969D03*
X0182717Y0136969D03*
X0182717Y0156969D03*
X0142717Y0156969D03*
X0142717Y0136969D03*
X0103977Y0136969D03*
X0103977Y0156969D03*
X0063977Y0156969D03*
X0063977Y0136969D03*
X0063977Y0215709D03*
X0063977Y0235709D03*
X0103977Y0235709D03*
X0103977Y0215709D03*
X0142717Y0215709D03*
X0142717Y0235709D03*
X0182717Y0235709D03*
X0182717Y0215709D03*
X0221457Y0215709D03*
X0221457Y0235709D03*
X0261457Y0235709D03*
X0261457Y0215709D03*
X0300198Y0215709D03*
X0300198Y0235709D03*
X0340198Y0235709D03*
X0340198Y0215709D03*
X0340198Y0294450D03*
X0340198Y0314450D03*
X0300198Y0314450D03*
X0300198Y0294450D03*
X0261457Y0294450D03*
X0261457Y0314450D03*
X0221457Y0314450D03*
X0221457Y0294450D03*
X0182717Y0294450D03*
X0182717Y0314450D03*
X0142717Y0314450D03*
X0142717Y0294450D03*
X0103977Y0294450D03*
X0103977Y0314450D03*
X0063977Y0314450D03*
X0063977Y0294450D03*
D13*
X0015237Y0325237D03*
X0055237Y0345237D03*
X0055237Y0365237D03*
X0045237Y0385237D03*
X0095237Y0385237D03*
M02*
